<?xml version="1.0" encoding="utf-8" standalone="no"?>
<!DOCTYPE svg PUBLIC "-//W3C//DTD SVG 1.1//EN"
  "http://www.w3.org/Graphics/SVG/1.1/DTD/svg11.dtd">
<svg height="288pt" version="1.1" viewBox="0 0 1080 288" width="1080pt" xmlns="http://www.w3.org/2000/svg" xmlns:xlink="http://www.w3.org/1999/xlink">
 <metadata>
  <rdf:RDF xmlns:cc="http://creativecommons.org/ns#" xmlns:dc="http://purl.org/dc/elements/1.1/" xmlns:rdf="http://www.w3.org/1999/02/22-rdf-syntax-ns#">
   <cc:Work>
    <dc:type rdf:resource="http://purl.org/dc/dcmitype/StillImage"/>
    <dc:date>2021-10-28T14:33:48.126224</dc:date>
    <dc:format>image/svg+xml</dc:format>
    <dc:creator>
     <cc:Agent>
      <dc:title>Matplotlib v3.4.3, https://matplotlib.org/</dc:title>
     </cc:Agent>
    </dc:creator>
   </cc:Work>
  </rdf:RDF>
 </metadata>
 <defs>
  <style type="text/css">*{stroke-linecap:butt;stroke-linejoin:round;}</style>
 </defs>
 <g id="figure_1">
  <g id="patch_1">
   <path d="M 0 288 
L 1080 288 
L 1080 0 
L 0 0 
z
" style="fill:none;"/>
  </g>
  <g id="axes_1">
   <g id="patch_2">
    <path d="M 45.846875 247.2 
L 549.033394 247.2 
L 549.033394 35.6 
L 45.846875 35.6 
z
" style="fill:#eaeaf2;"/>
   </g>
   <g id="matplotlib.axis_1">
    <g id="xtick_1">
     <g id="line2d_1">
      <path clip-path="url(#pf0838e615f)" d="M 50.512826 247.2 
L 50.512826 35.6 
" style="fill:none;stroke:#ffffff;stroke-linecap:round;"/>
     </g>
     <g id="text_1">
      <!-- 0.0 -->
      <g style="fill:#262626;" transform="translate(43.562826 261.357813)scale(0.1 -0.1)">
       <defs>
        <path d="M 266 2259 
Q 266 3072 433 3567 
Q 600 4063 929 4331 
Q 1259 4600 1759 4600 
Q 2128 4600 2406 4451 
Q 2684 4303 2865 4023 
Q 3047 3744 3150 3342 
Q 3253 2941 3253 2259 
Q 3253 1453 3087 958 
Q 2922 463 2592 192 
Q 2263 -78 1759 -78 
Q 1097 -78 719 397 
Q 266 969 266 2259 
z
M 844 2259 
Q 844 1131 1108 757 
Q 1372 384 1759 384 
Q 2147 384 2411 759 
Q 2675 1134 2675 2259 
Q 2675 3391 2411 3762 
Q 2147 4134 1753 4134 
Q 1366 4134 1134 3806 
Q 844 3388 844 2259 
z
" id="ArialMT-30" transform="scale(0.015625)"/>
        <path d="M 581 0 
L 581 641 
L 1222 641 
L 1222 0 
L 581 0 
z
" id="ArialMT-2e" transform="scale(0.015625)"/>
       </defs>
       <use xlink:href="#ArialMT-30"/>
       <use x="55.615234" xlink:href="#ArialMT-2e"/>
       <use x="83.398438" xlink:href="#ArialMT-30"/>
      </g>
     </g>
    </g>
    <g id="xtick_2">
     <g id="line2d_2">
      <path clip-path="url(#pf0838e615f)" d="M 150.000058 247.2 
L 150.000058 35.6 
" style="fill:none;stroke:#ffffff;stroke-linecap:round;"/>
     </g>
     <g id="text_2">
      <!-- 0.2 -->
      <g style="fill:#262626;" transform="translate(143.050058 261.357813)scale(0.1 -0.1)">
       <defs>
        <path d="M 3222 541 
L 3222 0 
L 194 0 
Q 188 203 259 391 
Q 375 700 629 1000 
Q 884 1300 1366 1694 
Q 2113 2306 2375 2664 
Q 2638 3022 2638 3341 
Q 2638 3675 2398 3904 
Q 2159 4134 1775 4134 
Q 1369 4134 1125 3890 
Q 881 3647 878 3216 
L 300 3275 
Q 359 3922 746 4261 
Q 1134 4600 1788 4600 
Q 2447 4600 2831 4234 
Q 3216 3869 3216 3328 
Q 3216 3053 3103 2787 
Q 2991 2522 2730 2228 
Q 2469 1934 1863 1422 
Q 1356 997 1212 845 
Q 1069 694 975 541 
L 3222 541 
z
" id="ArialMT-32" transform="scale(0.015625)"/>
       </defs>
       <use xlink:href="#ArialMT-30"/>
       <use x="55.615234" xlink:href="#ArialMT-2e"/>
       <use x="83.398438" xlink:href="#ArialMT-32"/>
      </g>
     </g>
    </g>
    <g id="xtick_3">
     <g id="line2d_3">
      <path clip-path="url(#pf0838e615f)" d="M 249.487289 247.2 
L 249.487289 35.6 
" style="fill:none;stroke:#ffffff;stroke-linecap:round;"/>
     </g>
     <g id="text_3">
      <!-- 0.4 -->
      <g style="fill:#262626;" transform="translate(242.537289 261.357813)scale(0.1 -0.1)">
       <defs>
        <path d="M 2069 0 
L 2069 1097 
L 81 1097 
L 81 1613 
L 2172 4581 
L 2631 4581 
L 2631 1613 
L 3250 1613 
L 3250 1097 
L 2631 1097 
L 2631 0 
L 2069 0 
z
M 2069 1613 
L 2069 3678 
L 634 1613 
L 2069 1613 
z
" id="ArialMT-34" transform="scale(0.015625)"/>
       </defs>
       <use xlink:href="#ArialMT-30"/>
       <use x="55.615234" xlink:href="#ArialMT-2e"/>
       <use x="83.398438" xlink:href="#ArialMT-34"/>
      </g>
     </g>
    </g>
    <g id="xtick_4">
     <g id="line2d_4">
      <path clip-path="url(#pf0838e615f)" d="M 348.97452 247.2 
L 348.97452 35.6 
" style="fill:none;stroke:#ffffff;stroke-linecap:round;"/>
     </g>
     <g id="text_4">
      <!-- 0.6 -->
      <g style="fill:#262626;" transform="translate(342.02452 261.357813)scale(0.1 -0.1)">
       <defs>
        <path d="M 3184 3459 
L 2625 3416 
Q 2550 3747 2413 3897 
Q 2184 4138 1850 4138 
Q 1581 4138 1378 3988 
Q 1113 3794 959 3422 
Q 806 3050 800 2363 
Q 1003 2672 1297 2822 
Q 1591 2972 1913 2972 
Q 2475 2972 2870 2558 
Q 3266 2144 3266 1488 
Q 3266 1056 3080 686 
Q 2894 316 2569 119 
Q 2244 -78 1831 -78 
Q 1128 -78 684 439 
Q 241 956 241 2144 
Q 241 3472 731 4075 
Q 1159 4600 1884 4600 
Q 2425 4600 2770 4297 
Q 3116 3994 3184 3459 
z
M 888 1484 
Q 888 1194 1011 928 
Q 1134 663 1356 523 
Q 1578 384 1822 384 
Q 2178 384 2434 671 
Q 2691 959 2691 1453 
Q 2691 1928 2437 2201 
Q 2184 2475 1800 2475 
Q 1419 2475 1153 2201 
Q 888 1928 888 1484 
z
" id="ArialMT-36" transform="scale(0.015625)"/>
       </defs>
       <use xlink:href="#ArialMT-30"/>
       <use x="55.615234" xlink:href="#ArialMT-2e"/>
       <use x="83.398438" xlink:href="#ArialMT-36"/>
      </g>
     </g>
    </g>
    <g id="xtick_5">
     <g id="line2d_5">
      <path clip-path="url(#pf0838e615f)" d="M 448.461752 247.2 
L 448.461752 35.6 
" style="fill:none;stroke:#ffffff;stroke-linecap:round;"/>
     </g>
     <g id="text_5">
      <!-- 0.8 -->
      <g style="fill:#262626;" transform="translate(441.511752 261.357813)scale(0.1 -0.1)">
       <defs>
        <path d="M 1131 2484 
Q 781 2613 612 2850 
Q 444 3088 444 3419 
Q 444 3919 803 4259 
Q 1163 4600 1759 4600 
Q 2359 4600 2725 4251 
Q 3091 3903 3091 3403 
Q 3091 3084 2923 2848 
Q 2756 2613 2416 2484 
Q 2838 2347 3058 2040 
Q 3278 1734 3278 1309 
Q 3278 722 2862 322 
Q 2447 -78 1769 -78 
Q 1091 -78 675 323 
Q 259 725 259 1325 
Q 259 1772 486 2073 
Q 713 2375 1131 2484 
z
M 1019 3438 
Q 1019 3113 1228 2906 
Q 1438 2700 1772 2700 
Q 2097 2700 2305 2904 
Q 2513 3109 2513 3406 
Q 2513 3716 2298 3927 
Q 2084 4138 1766 4138 
Q 1444 4138 1231 3931 
Q 1019 3725 1019 3438 
z
M 838 1322 
Q 838 1081 952 856 
Q 1066 631 1291 507 
Q 1516 384 1775 384 
Q 2178 384 2440 643 
Q 2703 903 2703 1303 
Q 2703 1709 2433 1975 
Q 2163 2241 1756 2241 
Q 1359 2241 1098 1978 
Q 838 1716 838 1322 
z
" id="ArialMT-38" transform="scale(0.015625)"/>
       </defs>
       <use xlink:href="#ArialMT-30"/>
       <use x="55.615234" xlink:href="#ArialMT-2e"/>
       <use x="83.398438" xlink:href="#ArialMT-38"/>
      </g>
     </g>
    </g>
    <g id="xtick_6">
     <g id="line2d_6">
      <path clip-path="url(#pf0838e615f)" d="M 547.948983 247.2 
L 547.948983 35.6 
" style="fill:none;stroke:#ffffff;stroke-linecap:round;"/>
     </g>
     <g id="text_6">
      <!-- 1.0 -->
      <g style="fill:#262626;" transform="translate(540.998983 261.357813)scale(0.1 -0.1)">
       <defs>
        <path d="M 2384 0 
L 1822 0 
L 1822 3584 
Q 1619 3391 1289 3197 
Q 959 3003 697 2906 
L 697 3450 
Q 1169 3672 1522 3987 
Q 1875 4303 2022 4600 
L 2384 4600 
L 2384 0 
z
" id="ArialMT-31" transform="scale(0.015625)"/>
       </defs>
       <use xlink:href="#ArialMT-31"/>
       <use x="55.615234" xlink:href="#ArialMT-2e"/>
       <use x="83.398438" xlink:href="#ArialMT-30"/>
      </g>
     </g>
    </g>
    <g id="text_7">
     <!-- Click Rate -->
     <g style="fill:#262626;" transform="translate(272.379041 275.218906)scale(0.11 -0.11)">
      <defs>
       <path d="M 3763 1606 
L 4369 1453 
Q 4178 706 3683 314 
Q 3188 -78 2472 -78 
Q 1731 -78 1267 223 
Q 803 525 561 1097 
Q 319 1669 319 2325 
Q 319 3041 592 3573 
Q 866 4106 1370 4382 
Q 1875 4659 2481 4659 
Q 3169 4659 3637 4309 
Q 4106 3959 4291 3325 
L 3694 3184 
Q 3534 3684 3231 3912 
Q 2928 4141 2469 4141 
Q 1941 4141 1586 3887 
Q 1231 3634 1087 3207 
Q 944 2781 944 2328 
Q 944 1744 1114 1308 
Q 1284 872 1643 656 
Q 2003 441 2422 441 
Q 2931 441 3284 734 
Q 3638 1028 3763 1606 
z
" id="ArialMT-43" transform="scale(0.015625)"/>
       <path d="M 409 0 
L 409 4581 
L 972 4581 
L 972 0 
L 409 0 
z
" id="ArialMT-6c" transform="scale(0.015625)"/>
       <path d="M 425 3934 
L 425 4581 
L 988 4581 
L 988 3934 
L 425 3934 
z
M 425 0 
L 425 3319 
L 988 3319 
L 988 0 
L 425 0 
z
" id="ArialMT-69" transform="scale(0.015625)"/>
       <path d="M 2588 1216 
L 3141 1144 
Q 3050 572 2676 248 
Q 2303 -75 1759 -75 
Q 1078 -75 664 370 
Q 250 816 250 1647 
Q 250 2184 428 2587 
Q 606 2991 970 3192 
Q 1334 3394 1763 3394 
Q 2303 3394 2647 3120 
Q 2991 2847 3088 2344 
L 2541 2259 
Q 2463 2594 2264 2762 
Q 2066 2931 1784 2931 
Q 1359 2931 1093 2626 
Q 828 2322 828 1663 
Q 828 994 1084 691 
Q 1341 388 1753 388 
Q 2084 388 2306 591 
Q 2528 794 2588 1216 
z
" id="ArialMT-63" transform="scale(0.015625)"/>
       <path d="M 425 0 
L 425 4581 
L 988 4581 
L 988 1969 
L 2319 3319 
L 3047 3319 
L 1778 2088 
L 3175 0 
L 2481 0 
L 1384 1697 
L 988 1316 
L 988 0 
L 425 0 
z
" id="ArialMT-6b" transform="scale(0.015625)"/>
       <path id="ArialMT-20" transform="scale(0.015625)"/>
       <path d="M 503 0 
L 503 4581 
L 2534 4581 
Q 3147 4581 3465 4457 
Q 3784 4334 3975 4021 
Q 4166 3709 4166 3331 
Q 4166 2844 3850 2509 
Q 3534 2175 2875 2084 
Q 3116 1969 3241 1856 
Q 3506 1613 3744 1247 
L 4541 0 
L 3778 0 
L 3172 953 
Q 2906 1366 2734 1584 
Q 2563 1803 2427 1890 
Q 2291 1978 2150 2013 
Q 2047 2034 1813 2034 
L 1109 2034 
L 1109 0 
L 503 0 
z
M 1109 2559 
L 2413 2559 
Q 2828 2559 3062 2645 
Q 3297 2731 3419 2920 
Q 3541 3109 3541 3331 
Q 3541 3656 3305 3865 
Q 3069 4075 2559 4075 
L 1109 4075 
L 1109 2559 
z
" id="ArialMT-52" transform="scale(0.015625)"/>
       <path d="M 2588 409 
Q 2275 144 1986 34 
Q 1697 -75 1366 -75 
Q 819 -75 525 192 
Q 231 459 231 875 
Q 231 1119 342 1320 
Q 453 1522 633 1644 
Q 813 1766 1038 1828 
Q 1203 1872 1538 1913 
Q 2219 1994 2541 2106 
Q 2544 2222 2544 2253 
Q 2544 2597 2384 2738 
Q 2169 2928 1744 2928 
Q 1347 2928 1158 2789 
Q 969 2650 878 2297 
L 328 2372 
Q 403 2725 575 2942 
Q 747 3159 1072 3276 
Q 1397 3394 1825 3394 
Q 2250 3394 2515 3294 
Q 2781 3194 2906 3042 
Q 3031 2891 3081 2659 
Q 3109 2516 3109 2141 
L 3109 1391 
Q 3109 606 3145 398 
Q 3181 191 3288 0 
L 2700 0 
Q 2613 175 2588 409 
z
M 2541 1666 
Q 2234 1541 1622 1453 
Q 1275 1403 1131 1340 
Q 988 1278 909 1158 
Q 831 1038 831 891 
Q 831 666 1001 516 
Q 1172 366 1500 366 
Q 1825 366 2078 508 
Q 2331 650 2450 897 
Q 2541 1088 2541 1459 
L 2541 1666 
z
" id="ArialMT-61" transform="scale(0.015625)"/>
       <path d="M 1650 503 
L 1731 6 
Q 1494 -44 1306 -44 
Q 1000 -44 831 53 
Q 663 150 594 308 
Q 525 466 525 972 
L 525 2881 
L 113 2881 
L 113 3319 
L 525 3319 
L 525 4141 
L 1084 4478 
L 1084 3319 
L 1650 3319 
L 1650 2881 
L 1084 2881 
L 1084 941 
Q 1084 700 1114 631 
Q 1144 563 1211 522 
Q 1278 481 1403 481 
Q 1497 481 1650 503 
z
" id="ArialMT-74" transform="scale(0.015625)"/>
       <path d="M 2694 1069 
L 3275 997 
Q 3138 488 2766 206 
Q 2394 -75 1816 -75 
Q 1088 -75 661 373 
Q 234 822 234 1631 
Q 234 2469 665 2931 
Q 1097 3394 1784 3394 
Q 2450 3394 2872 2941 
Q 3294 2488 3294 1666 
Q 3294 1616 3291 1516 
L 816 1516 
Q 847 969 1125 678 
Q 1403 388 1819 388 
Q 2128 388 2347 550 
Q 2566 713 2694 1069 
z
M 847 1978 
L 2700 1978 
Q 2663 2397 2488 2606 
Q 2219 2931 1791 2931 
Q 1403 2931 1139 2672 
Q 875 2413 847 1978 
z
" id="ArialMT-65" transform="scale(0.015625)"/>
      </defs>
      <use xlink:href="#ArialMT-43"/>
      <use x="72.216797" xlink:href="#ArialMT-6c"/>
      <use x="94.433594" xlink:href="#ArialMT-69"/>
      <use x="116.650391" xlink:href="#ArialMT-63"/>
      <use x="166.650391" xlink:href="#ArialMT-6b"/>
      <use x="216.650391" xlink:href="#ArialMT-20"/>
      <use x="244.433594" xlink:href="#ArialMT-52"/>
      <use x="316.650391" xlink:href="#ArialMT-61"/>
      <use x="372.265625" xlink:href="#ArialMT-74"/>
      <use x="400.048828" xlink:href="#ArialMT-65"/>
     </g>
    </g>
   </g>
   <g id="matplotlib.axis_2">
    <g id="ytick_1">
     <g id="line2d_7">
      <path clip-path="url(#pf0838e615f)" d="M 45.846875 229.88137 
L 549.033394 229.88137 
" style="fill:none;stroke:#ffffff;stroke-linecap:round;"/>
     </g>
     <g id="text_8">
      <!-- 0.5 -->
      <g style="fill:#262626;" transform="translate(24.946875 233.460276)scale(0.1 -0.1)">
       <defs>
        <path d="M 266 1200 
L 856 1250 
Q 922 819 1161 601 
Q 1400 384 1738 384 
Q 2144 384 2425 690 
Q 2706 997 2706 1503 
Q 2706 1984 2436 2262 
Q 2166 2541 1728 2541 
Q 1456 2541 1237 2417 
Q 1019 2294 894 2097 
L 366 2166 
L 809 4519 
L 3088 4519 
L 3088 3981 
L 1259 3981 
L 1013 2750 
Q 1425 3038 1878 3038 
Q 2478 3038 2890 2622 
Q 3303 2206 3303 1553 
Q 3303 931 2941 478 
Q 2500 -78 1738 -78 
Q 1113 -78 717 272 
Q 322 622 266 1200 
z
" id="ArialMT-35" transform="scale(0.015625)"/>
       </defs>
       <use xlink:href="#ArialMT-30"/>
       <use x="55.615234" xlink:href="#ArialMT-2e"/>
       <use x="83.398438" xlink:href="#ArialMT-35"/>
      </g>
     </g>
    </g>
    <g id="ytick_2">
     <g id="line2d_8">
      <path clip-path="url(#pf0838e615f)" d="M 45.846875 196.342832 
L 549.033394 196.342832 
" style="fill:none;stroke:#ffffff;stroke-linecap:round;"/>
     </g>
     <g id="text_9">
      <!-- 1.0 -->
      <g style="fill:#262626;" transform="translate(24.946875 199.921739)scale(0.1 -0.1)">
       <use xlink:href="#ArialMT-31"/>
       <use x="55.615234" xlink:href="#ArialMT-2e"/>
       <use x="83.398438" xlink:href="#ArialMT-30"/>
      </g>
     </g>
    </g>
    <g id="ytick_3">
     <g id="line2d_9">
      <path clip-path="url(#pf0838e615f)" d="M 45.846875 162.804295 
L 549.033394 162.804295 
" style="fill:none;stroke:#ffffff;stroke-linecap:round;"/>
     </g>
     <g id="text_10">
      <!-- 1.5 -->
      <g style="fill:#262626;" transform="translate(24.946875 166.383201)scale(0.1 -0.1)">
       <use xlink:href="#ArialMT-31"/>
       <use x="55.615234" xlink:href="#ArialMT-2e"/>
       <use x="83.398438" xlink:href="#ArialMT-35"/>
      </g>
     </g>
    </g>
    <g id="ytick_4">
     <g id="line2d_10">
      <path clip-path="url(#pf0838e615f)" d="M 45.846875 129.265757 
L 549.033394 129.265757 
" style="fill:none;stroke:#ffffff;stroke-linecap:round;"/>
     </g>
     <g id="text_11">
      <!-- 2.0 -->
      <g style="fill:#262626;" transform="translate(24.946875 132.844663)scale(0.1 -0.1)">
       <use xlink:href="#ArialMT-32"/>
       <use x="55.615234" xlink:href="#ArialMT-2e"/>
       <use x="83.398438" xlink:href="#ArialMT-30"/>
      </g>
     </g>
    </g>
    <g id="ytick_5">
     <g id="line2d_11">
      <path clip-path="url(#pf0838e615f)" d="M 45.846875 95.727219 
L 549.033394 95.727219 
" style="fill:none;stroke:#ffffff;stroke-linecap:round;"/>
     </g>
     <g id="text_12">
      <!-- 2.5 -->
      <g style="fill:#262626;" transform="translate(24.946875 99.306126)scale(0.1 -0.1)">
       <use xlink:href="#ArialMT-32"/>
       <use x="55.615234" xlink:href="#ArialMT-2e"/>
       <use x="83.398438" xlink:href="#ArialMT-35"/>
      </g>
     </g>
    </g>
    <g id="ytick_6">
     <g id="line2d_12">
      <path clip-path="url(#pf0838e615f)" d="M 45.846875 62.188682 
L 549.033394 62.188682 
" style="fill:none;stroke:#ffffff;stroke-linecap:round;"/>
     </g>
     <g id="text_13">
      <!-- 3.0 -->
      <g style="fill:#262626;" transform="translate(24.946875 65.767588)scale(0.1 -0.1)">
       <defs>
        <path d="M 269 1209 
L 831 1284 
Q 928 806 1161 595 
Q 1394 384 1728 384 
Q 2125 384 2398 659 
Q 2672 934 2672 1341 
Q 2672 1728 2419 1979 
Q 2166 2231 1775 2231 
Q 1616 2231 1378 2169 
L 1441 2663 
Q 1497 2656 1531 2656 
Q 1891 2656 2178 2843 
Q 2466 3031 2466 3422 
Q 2466 3731 2256 3934 
Q 2047 4138 1716 4138 
Q 1388 4138 1169 3931 
Q 950 3725 888 3313 
L 325 3413 
Q 428 3978 793 4289 
Q 1159 4600 1703 4600 
Q 2078 4600 2393 4439 
Q 2709 4278 2876 4000 
Q 3044 3722 3044 3409 
Q 3044 3113 2884 2869 
Q 2725 2625 2413 2481 
Q 2819 2388 3044 2092 
Q 3269 1797 3269 1353 
Q 3269 753 2831 336 
Q 2394 -81 1725 -81 
Q 1122 -81 723 278 
Q 325 638 269 1209 
z
" id="ArialMT-33" transform="scale(0.015625)"/>
       </defs>
       <use xlink:href="#ArialMT-33"/>
       <use x="55.615234" xlink:href="#ArialMT-2e"/>
       <use x="83.398438" xlink:href="#ArialMT-30"/>
      </g>
     </g>
    </g>
    <g id="text_14">
     <!-- Open Rate -->
     <g style="fill:#262626;" transform="translate(18.760625 167.998516)rotate(-90)scale(0.11 -0.11)">
      <defs>
       <path d="M 309 2231 
Q 309 3372 921 4017 
Q 1534 4663 2503 4663 
Q 3138 4663 3647 4359 
Q 4156 4056 4423 3514 
Q 4691 2972 4691 2284 
Q 4691 1588 4409 1038 
Q 4128 488 3612 205 
Q 3097 -78 2500 -78 
Q 1853 -78 1343 234 
Q 834 547 571 1087 
Q 309 1628 309 2231 
z
M 934 2222 
Q 934 1394 1379 917 
Q 1825 441 2497 441 
Q 3181 441 3623 922 
Q 4066 1403 4066 2288 
Q 4066 2847 3877 3264 
Q 3688 3681 3323 3911 
Q 2959 4141 2506 4141 
Q 1863 4141 1398 3698 
Q 934 3256 934 2222 
z
" id="ArialMT-4f" transform="scale(0.015625)"/>
       <path d="M 422 -1272 
L 422 3319 
L 934 3319 
L 934 2888 
Q 1116 3141 1344 3267 
Q 1572 3394 1897 3394 
Q 2322 3394 2647 3175 
Q 2972 2956 3137 2557 
Q 3303 2159 3303 1684 
Q 3303 1175 3120 767 
Q 2938 359 2589 142 
Q 2241 -75 1856 -75 
Q 1575 -75 1351 44 
Q 1128 163 984 344 
L 984 -1272 
L 422 -1272 
z
M 931 1641 
Q 931 1000 1190 694 
Q 1450 388 1819 388 
Q 2194 388 2461 705 
Q 2728 1022 2728 1688 
Q 2728 2322 2467 2637 
Q 2206 2953 1844 2953 
Q 1484 2953 1207 2617 
Q 931 2281 931 1641 
z
" id="ArialMT-70" transform="scale(0.015625)"/>
       <path d="M 422 0 
L 422 3319 
L 928 3319 
L 928 2847 
Q 1294 3394 1984 3394 
Q 2284 3394 2536 3286 
Q 2788 3178 2913 3003 
Q 3038 2828 3088 2588 
Q 3119 2431 3119 2041 
L 3119 0 
L 2556 0 
L 2556 2019 
Q 2556 2363 2490 2533 
Q 2425 2703 2258 2804 
Q 2091 2906 1866 2906 
Q 1506 2906 1245 2678 
Q 984 2450 984 1813 
L 984 0 
L 422 0 
z
" id="ArialMT-6e" transform="scale(0.015625)"/>
      </defs>
      <use xlink:href="#ArialMT-4f"/>
      <use x="77.783203" xlink:href="#ArialMT-70"/>
      <use x="133.398438" xlink:href="#ArialMT-65"/>
      <use x="189.013672" xlink:href="#ArialMT-6e"/>
      <use x="244.628906" xlink:href="#ArialMT-20"/>
      <use x="272.412109" xlink:href="#ArialMT-52"/>
      <use x="344.628906" xlink:href="#ArialMT-61"/>
      <use x="400.244141" xlink:href="#ArialMT-74"/>
      <use x="428.027344" xlink:href="#ArialMT-65"/>
     </g>
    </g>
   </g>
   <g id="PathCollection_1">
    <defs>
     <path d="M 0 3.5 
C 0.928211 3.5 1.81853 3.131218 2.474874 2.474874 
C 3.131218 1.81853 3.5 0.928211 3.5 0 
C 3.5 -0.928211 3.131218 -1.81853 2.474874 -2.474874 
C 1.81853 -3.131218 0.928211 -3.5 0 -3.5 
C -0.928211 -3.5 -1.81853 -3.131218 -2.474874 -2.474874 
C -3.131218 -1.81853 -3.5 -0.928211 -3.5 0 
C -3.5 0.928211 -3.131218 1.81853 -2.474874 2.474874 
C -1.81853 3.131218 -0.928211 3.5 0 3.5 
z
" id="m79bb0bdac3"/>
    </defs>
    <g clip-path="url(#pf0838e615f)">
     <use style="fill:#4c72b0;fill-opacity:0.8;" x="79.762072" xlink:href="#m79bb0bdac3" y="184.778745"/>
     <use style="fill:#4c72b0;fill-opacity:0.8;" x="127.565687" xlink:href="#m79bb0bdac3" y="134.705708"/>
     <use style="fill:#4c72b0;fill-opacity:0.8;" x="216.308297" xlink:href="#m79bb0bdac3" y="157.646068"/>
     <use style="fill:#4c72b0;fill-opacity:0.8;" x="76.329763" xlink:href="#m79bb0bdac3" y="152.990919"/>
     <use style="fill:#4c72b0;fill-opacity:0.8;" x="78.170276" xlink:href="#m79bb0bdac3" y="45.218182"/>
     <use style="fill:#4c72b0;fill-opacity:0.8;" x="212.826244" xlink:href="#m79bb0bdac3" y="212.152899"/>
     <use style="fill:#4c72b0;fill-opacity:0.8;" x="215.412912" xlink:href="#m79bb0bdac3" y="211.636405"/>
     <use style="fill:#4c72b0;fill-opacity:0.8;" x="176.712379" xlink:href="#m79bb0bdac3" y="206.887349"/>
     <use style="fill:#4c72b0;fill-opacity:0.8;" x="127.416456" xlink:href="#m79bb0bdac3" y="194.115873"/>
     <use style="fill:#4c72b0;fill-opacity:0.8;" x="161.441089" xlink:href="#m79bb0bdac3" y="208.46366"/>
     <use style="fill:#4c72b0;fill-opacity:0.8;" x="214.567271" xlink:href="#m79bb0bdac3" y="214.540843"/>
     <use style="fill:#4c72b0;fill-opacity:0.8;" x="91.949258" xlink:href="#m79bb0bdac3" y="207.041626"/>
     <use style="fill:#4c72b0;fill-opacity:0.8;" x="206.459061" xlink:href="#m79bb0bdac3" y="213.434071"/>
     <use style="fill:#4c72b0;fill-opacity:0.8;" x="124.680557" xlink:href="#m79bb0bdac3" y="199.052746"/>
     <use style="fill:#4c72b0;fill-opacity:0.8;" x="195.764184" xlink:href="#m79bb0bdac3" y="212.682808"/>
     <use style="fill:#4c72b0;fill-opacity:0.8;" x="137.066717" xlink:href="#m79bb0bdac3" y="216.298262"/>
     <use style="fill:#4c72b0;fill-opacity:0.8;" x="121.297991" xlink:href="#m79bb0bdac3" y="207.772766"/>
     <use style="fill:#4c72b0;fill-opacity:0.8;" x="125.277481" xlink:href="#m79bb0bdac3" y="214.84269"/>
     <use style="fill:#4c72b0;fill-opacity:0.8;" x="127.4662" xlink:href="#m79bb0bdac3" y="210.710742"/>
     <use style="fill:#4c72b0;fill-opacity:0.8;" x="80.458483" xlink:href="#m79bb0bdac3" y="213.427363"/>
     <use style="fill:#4c72b0;fill-opacity:0.8;" x="117.368246" xlink:href="#m79bb0bdac3" y="213.138932"/>
     <use style="fill:#4c72b0;fill-opacity:0.8;" x="81.552842" xlink:href="#m79bb0bdac3" y="200.374165"/>
     <use style="fill:#4c72b0;fill-opacity:0.8;" x="106.474394" xlink:href="#m79bb0bdac3" y="209.053938"/>
     <use style="fill:#4c72b0;fill-opacity:0.8;" x="119.009785" xlink:href="#m79bb0bdac3" y="210.234495"/>
     <use style="fill:#4c72b0;fill-opacity:0.8;" x="162.933398" xlink:href="#m79bb0bdac3" y="221.744921"/>
     <use style="fill:#4c72b0;fill-opacity:0.8;" x="92.645669" xlink:href="#m79bb0bdac3" y="209.624093"/>
     <use style="fill:#4c72b0;fill-opacity:0.8;" x="99.609775" xlink:href="#m79bb0bdac3" y="221.342458"/>
     <use style="fill:#4c72b0;fill-opacity:0.8;" x="74.588736" xlink:href="#m79bb0bdac3" y="208.946615"/>
     <use style="fill:#4c72b0;fill-opacity:0.8;" x="117.119528" xlink:href="#m79bb0bdac3" y="220.933288"/>
     <use style="fill:#4c72b0;fill-opacity:0.8;" x="175.816994" xlink:href="#m79bb0bdac3" y="216.137277"/>
     <use style="fill:#4c72b0;fill-opacity:0.8;" x="123.735428" xlink:href="#m79bb0bdac3" y="221.087565"/>
     <use style="fill:#4c72b0;fill-opacity:0.8;" x="201.335469" xlink:href="#m79bb0bdac3" y="220.866211"/>
     <use style="fill:#4c72b0;fill-opacity:0.8;" x="189.297514" xlink:href="#m79bb0bdac3" y="224.924374"/>
     <use style="fill:#4c72b0;fill-opacity:0.8;" x="100.654391" xlink:href="#m79bb0bdac3" y="209.268585"/>
     <use style="fill:#4c72b0;fill-opacity:0.8;" x="120.104144" xlink:href="#m79bb0bdac3" y="215.33906"/>
     <use style="fill:#4c72b0;fill-opacity:0.8;" x="120.104144" xlink:href="#m79bb0bdac3" y="215.33906"/>
     <use style="fill:#4c72b0;fill-opacity:0.8;" x="102.594392" xlink:href="#m79bb0bdac3" y="228.935583"/>
     <use style="fill:#4c72b0;fill-opacity:0.8;" x="96.426183" xlink:href="#m79bb0bdac3" y="210.610126"/>
     <use style="fill:#4c72b0;fill-opacity:0.8;" x="98.117466" xlink:href="#m79bb0bdac3" y="219.739316"/>
     <use style="fill:#4c72b0;fill-opacity:0.8;" x="234.514461" xlink:href="#m79bb0bdac3" y="221.382705"/>
     <use style="fill:#4c72b0;fill-opacity:0.8;" x="109.508754" xlink:href="#m79bb0bdac3" y="221.872367"/>
     <use style="fill:#4c72b0;fill-opacity:0.8;" x="233.370357" xlink:href="#m79bb0bdac3" y="216.211062"/>
     <use style="fill:#4c72b0;fill-opacity:0.8;" x="225.162661" xlink:href="#m79bb0bdac3" y="222.952308"/>
     <use style="fill:#4c72b0;fill-opacity:0.8;" x="91.053873" xlink:href="#m79bb0bdac3" y="220.329594"/>
     <use style="fill:#4c72b0;fill-opacity:0.8;" x="85.333357" xlink:href="#m79bb0bdac3" y="220.638149"/>
     <use style="fill:#4c72b0;fill-opacity:0.8;" x="172.882121" xlink:href="#m79bb0bdac3" y="225.910407"/>
     <use style="fill:#4c72b0;fill-opacity:0.8;" x="87.422589" xlink:href="#m79bb0bdac3" y="226.775701"/>
     <use style="fill:#4c72b0;fill-opacity:0.8;" x="122.740556" xlink:href="#m79bb0bdac3" y="226.849486"/>
     <use style="fill:#4c72b0;fill-opacity:0.8;" x="134.579537" xlink:href="#m79bb0bdac3" y="227.654411"/>
     <use style="fill:#4c72b0;fill-opacity:0.8;" x="110.901576" xlink:href="#m79bb0bdac3" y="214.916474"/>
     <use style="fill:#4c72b0;fill-opacity:0.8;" x="96.177465" xlink:href="#m79bb0bdac3" y="222.744369"/>
     <use style="fill:#4c72b0;fill-opacity:0.8;" x="112.393884" xlink:href="#m79bb0bdac3" y="227.828811"/>
     <use style="fill:#4c72b0;fill-opacity:0.8;" x="87.223615" xlink:href="#m79bb0bdac3" y="218.310574"/>
     <use style="fill:#4c72b0;fill-opacity:0.8;" x="181.388279" xlink:href="#m79bb0bdac3" y="221.127812"/>
     <use style="fill:#4c72b0;fill-opacity:0.8;" x="132.390818" xlink:href="#m79bb0bdac3" y="190.191865"/>
     <use style="fill:#4c72b0;fill-opacity:0.8;" x="86.875409" xlink:href="#m79bb0bdac3" y="227.681242"/>
     <use style="fill:#4c72b0;fill-opacity:0.8;" x="103.589264" xlink:href="#m79bb0bdac3" y="233.007162"/>
     <use style="fill:#4c72b0;fill-opacity:0.8;" x="170.693402" xlink:href="#m79bb0bdac3" y="227.164748"/>
     <use style="fill:#4c72b0;fill-opacity:0.8;" x="139.404667" xlink:href="#m79bb0bdac3" y="218.592298"/>
     <use style="fill:#4c72b0;fill-opacity:0.8;" x="113.488244" xlink:href="#m79bb0bdac3" y="219.967378"/>
     <use style="fill:#4c72b0;fill-opacity:0.8;" x="89.263103" xlink:href="#m79bb0bdac3" y="226.125054"/>
     <use style="fill:#4c72b0;fill-opacity:0.8;" x="93.192848" xlink:href="#m79bb0bdac3" y="225.896992"/>
     <use style="fill:#4c72b0;fill-opacity:0.8;" x="103.887726" xlink:href="#m79bb0bdac3" y="223.643202"/>
     <use style="fill:#4c72b0;fill-opacity:0.8;" x="79.712329" xlink:href="#m79bb0bdac3" y="227.788565"/>
     <use style="fill:#4c72b0;fill-opacity:0.8;" x="261.873449" xlink:href="#m79bb0bdac3" y="229.156938"/>
     <use style="fill:#4c72b0;fill-opacity:0.8;" x="103.589264" xlink:href="#m79bb0bdac3" y="229.364876"/>
     <use style="fill:#4c72b0;fill-opacity:0.8;" x="85.383101" xlink:href="#m79bb0bdac3" y="220.799134"/>
     <use style="fill:#4c72b0;fill-opacity:0.8;" x="83.940536" xlink:href="#m79bb0bdac3" y="221.95286"/>
     <use style="fill:#4c72b0;fill-opacity:0.8;" x="98.067723" xlink:href="#m79bb0bdac3" y="224.528619"/>
     <use style="fill:#4c72b0;fill-opacity:0.8;" x="117.219015" xlink:href="#m79bb0bdac3" y="222.871816"/>
     <use style="fill:#4c72b0;fill-opacity:0.8;" x="68.718989" xlink:href="#m79bb0bdac3" y="224.434711"/>
     <use style="fill:#4c72b0;fill-opacity:0.8;" x="73.444633" xlink:href="#m79bb0bdac3" y="227.010471"/>
     <use style="fill:#4c72b0;fill-opacity:0.8;" x="215.412912" xlink:href="#m79bb0bdac3" y="216.559863"/>
     <use style="fill:#4c72b0;fill-opacity:0.8;" x="121.596453" xlink:href="#m79bb0bdac3" y="225.326837"/>
     <use style="fill:#4c72b0;fill-opacity:0.8;" x="108.364651" xlink:href="#m79bb0bdac3" y="230.887526"/>
     <use style="fill:#4c72b0;fill-opacity:0.8;" x="230.733946" xlink:href="#m79bb0bdac3" y="221.959567"/>
     <use style="fill:#4c72b0;fill-opacity:0.8;" x="128.859021" xlink:href="#m79bb0bdac3" y="223.428555"/>
     <use style="fill:#4c72b0;fill-opacity:0.8;" x="96.824132" xlink:href="#m79bb0bdac3" y="221.510151"/>
     <use style="fill:#4c72b0;fill-opacity:0.8;" x="120.054401" xlink:href="#m79bb0bdac3" y="219.994209"/>
     <use style="fill:#4c72b0;fill-opacity:0.8;" x="122.541582" xlink:href="#m79bb0bdac3" y="213.829826"/>
     <use style="fill:#4c72b0;fill-opacity:0.8;" x="145.77185" xlink:href="#m79bb0bdac3" y="215.634199"/>
     <use style="fill:#4c72b0;fill-opacity:0.8;" x="227.301636" xlink:href="#m79bb0bdac3" y="219.625285"/>
     <use style="fill:#4c72b0;fill-opacity:0.8;" x="130.052868" xlink:href="#m79bb0bdac3" y="222.247999"/>
     <use style="fill:#4c72b0;fill-opacity:0.8;" x="81.055406" xlink:href="#m79bb0bdac3" y="216.942202"/>
     <use style="fill:#4c72b0;fill-opacity:0.8;" x="83.691818" xlink:href="#m79bb0bdac3" y="213.682256"/>
     <use style="fill:#4c72b0;fill-opacity:0.8;" x="79.015918" xlink:href="#m79bb0bdac3" y="221.590643"/>
     <use style="fill:#4c72b0;fill-opacity:0.8;" x="226.157533" xlink:href="#m79bb0bdac3" y="226.40007"/>
     <use style="fill:#4c72b0;fill-opacity:0.8;" x="183.925203" xlink:href="#m79bb0bdac3" y="219.678947"/>
     <use style="fill:#4c72b0;fill-opacity:0.8;" x="83.841049" xlink:href="#m79bb0bdac3" y="218.780114"/>
     <use style="fill:#4c72b0;fill-opacity:0.8;" x="246.502672" xlink:href="#m79bb0bdac3" y="220.289348"/>
     <use style="fill:#4c72b0;fill-opacity:0.8;" x="85.134383" xlink:href="#m79bb0bdac3" y="221.302212"/>
     <use style="fill:#4c72b0;fill-opacity:0.8;" x="110.802088" xlink:href="#m79bb0bdac3" y="224.454835"/>
     <use style="fill:#4c72b0;fill-opacity:0.8;" x="95.182593" xlink:href="#m79bb0bdac3" y="220.564364"/>
     <use style="fill:#4c72b0;fill-opacity:0.8;" x="79.364123" xlink:href="#m79bb0bdac3" y="111.67144"/>
     <use style="fill:#4c72b0;fill-opacity:0.8;" x="94.635413" xlink:href="#m79bb0bdac3" y="221.993106"/>
     <use style="fill:#4c72b0;fill-opacity:0.8;" x="210.687269" xlink:href="#m79bb0bdac3" y="224.052372"/>
     <use style="fill:#4c72b0;fill-opacity:0.8;" x="169.201093" xlink:href="#m79bb0bdac3" y="225.917115"/>
     <use style="fill:#4c72b0;fill-opacity:0.8;" x="74.041556" xlink:href="#m79bb0bdac3" y="222.744369"/>
     <use style="fill:#4c72b0;fill-opacity:0.8;" x="91.650796" xlink:href="#m79bb0bdac3" y="219.189284"/>
     <use style="fill:#4c72b0;fill-opacity:0.8;" x="78.021046" xlink:href="#m79bb0bdac3" y="176.608757"/>
     <use style="fill:#4c72b0;fill-opacity:0.8;" x="111.995935" xlink:href="#m79bb0bdac3" y="222.603507"/>
     <use style="fill:#4c72b0;fill-opacity:0.8;" x="271.026274" xlink:href="#m79bb0bdac3" y="227.620873"/>
     <use style="fill:#4c72b0;fill-opacity:0.8;" x="99.510288" xlink:href="#m79bb0bdac3" y="221.168058"/>
     <use style="fill:#4c72b0;fill-opacity:0.8;" x="126.91902" xlink:href="#m79bb0bdac3" y="222.442522"/>
     <use style="fill:#4c72b0;fill-opacity:0.8;" x="207.652908" xlink:href="#m79bb0bdac3" y="218.666083"/>
     <use style="fill:#4c72b0;fill-opacity:0.8;" x="98.415928" xlink:href="#m79bb0bdac3" y="222.784615"/>
     <use style="fill:#4c72b0;fill-opacity:0.8;" x="132.888254" xlink:href="#m79bb0bdac3" y="226.346408"/>
     <use style="fill:#4c72b0;fill-opacity:0.8;" x="112.294397" xlink:href="#m79bb0bdac3" y="224.032249"/>
     <use style="fill:#4c72b0;fill-opacity:0.8;" x="97.719517" xlink:href="#m79bb0bdac3" y="216.043369"/>
     <use style="fill:#4c72b0;fill-opacity:0.8;" x="118.512349" xlink:href="#m79bb0bdac3" y="222.395568"/>
     <use style="fill:#4c72b0;fill-opacity:0.8;" x="107.469266" xlink:href="#m79bb0bdac3" y="223.810895"/>
     <use style="fill:#4c72b0;fill-opacity:0.8;" x="191.834438" xlink:href="#m79bb0bdac3" y="229.049614"/>
     <use style="fill:#4c72b0;fill-opacity:0.8;" x="114.781578" xlink:href="#m79bb0bdac3" y="225.105482"/>
     <use style="fill:#4c72b0;fill-opacity:0.8;" x="112.692346" xlink:href="#m79bb0bdac3" y="218.082512"/>
     <use style="fill:#4c72b0;fill-opacity:0.8;" x="335.941693" xlink:href="#m79bb0bdac3" y="228.177612"/>
     <use style="fill:#4c72b0;fill-opacity:0.8;" x="139.454411" xlink:href="#m79bb0bdac3" y="234.060272"/>
     <use style="fill:#4c72b0;fill-opacity:0.8;" x="147.910826" xlink:href="#m79bb0bdac3" y="233.355962"/>
     <use style="fill:#4c72b0;fill-opacity:0.8;" x="163.38109" xlink:href="#m79bb0bdac3" y="220.222271"/>
     <use style="fill:#4c72b0;fill-opacity:0.8;" x="145.125183" xlink:href="#m79bb0bdac3" y="228.398967"/>
     <use style="fill:#4c72b0;fill-opacity:0.8;" x="117.02004" xlink:href="#m79bb0bdac3" y="225.427452"/>
     <use style="fill:#4c72b0;fill-opacity:0.8;" x="142.836977" xlink:href="#m79bb0bdac3" y="224.29385"/>
     <use style="fill:#4c72b0;fill-opacity:0.8;" x="104.285675" xlink:href="#m79bb0bdac3" y="225.709176"/>
     <use style="fill:#4c72b0;fill-opacity:0.8;" x="278.089868" xlink:href="#m79bb0bdac3" y="230.277125"/>
     <use style="fill:#4c72b0;fill-opacity:0.8;" x="455.226883" xlink:href="#m79bb0bdac3" y="227.600749"/>
     <use style="fill:#4c72b0;fill-opacity:0.8;" x="271.871916" xlink:href="#m79bb0bdac3" y="223.32794"/>
     <use style="fill:#4c72b0;fill-opacity:0.8;" x="330.66887" xlink:href="#m79bb0bdac3" y="229.009368"/>
     <use style="fill:#4c72b0;fill-opacity:0.8;" x="375.38838" xlink:href="#m79bb0bdac3" y="220.993657"/>
     <use style="fill:#4c72b0;fill-opacity:0.8;" x="165.271348" xlink:href="#m79bb0bdac3" y="220.92658"/>
     <use style="fill:#4c72b0;fill-opacity:0.8;" x="322.958609" xlink:href="#m79bb0bdac3" y="225.105482"/>
     <use style="fill:#4c72b0;fill-opacity:0.8;" x="325.495534" xlink:href="#m79bb0bdac3" y="218.531929"/>
     <use style="fill:#4c72b0;fill-opacity:0.8;" x="196.26162" xlink:href="#m79bb0bdac3" y="225.769545"/>
     <use style="fill:#4c72b0;fill-opacity:0.8;" x="347.73093" xlink:href="#m79bb0bdac3" y="225.870161"/>
     <use style="fill:#4c72b0;fill-opacity:0.8;" x="383.596077" xlink:href="#m79bb0bdac3" y="228.030043"/>
     <use style="fill:#4c72b0;fill-opacity:0.8;" x="216.159066" xlink:href="#m79bb0bdac3" y="224.609112"/>
     <use style="fill:#4c72b0;fill-opacity:0.8;" x="159.600575" xlink:href="#m79bb0bdac3" y="224.186526"/>
     <use style="fill:#4c72b0;fill-opacity:0.8;" x="341.015542" xlink:href="#m79bb0bdac3" y="230.968019"/>
     <use style="fill:#4c72b0;fill-opacity:0.8;" x="296.793467" xlink:href="#m79bb0bdac3" y="221.013781"/>
     <use style="fill:#4c72b0;fill-opacity:0.8;" x="158.307241" xlink:href="#m79bb0bdac3" y="220.886334"/>
     <use style="fill:#4c72b0;fill-opacity:0.8;" x="349.770418" xlink:href="#m79bb0bdac3" y="223.750525"/>
     <use style="fill:#4c72b0;fill-opacity:0.8;" x="183.079562" xlink:href="#m79bb0bdac3" y="223.763941"/>
     <use style="fill:#4c72b0;fill-opacity:0.8;" x="164.525193" xlink:href="#m79bb0bdac3" y="226.279331"/>
     <use style="fill:#4c72b0;fill-opacity:0.8;" x="372.503251" xlink:href="#m79bb0bdac3" y="225.910407"/>
     <use style="fill:#4c72b0;fill-opacity:0.8;" x="162.038013" xlink:href="#m79bb0bdac3" y="228.231274"/>
     <use style="fill:#4c72b0;fill-opacity:0.8;" x="217.99958" xlink:href="#m79bb0bdac3" y="224.152988"/>
     <use style="fill:#4c72b0;fill-opacity:0.8;" x="205.712907" xlink:href="#m79bb0bdac3" y="222.844985"/>
     <use style="fill:#4c72b0;fill-opacity:0.8;" x="243.020619" xlink:href="#m79bb0bdac3" y="227.828811"/>
     <use style="fill:#4c72b0;fill-opacity:0.8;" x="379.666331" xlink:href="#m79bb0bdac3" y="226.842778"/>
     <use style="fill:#4c72b0;fill-opacity:0.8;" x="266.499605" xlink:href="#m79bb0bdac3" y="225.152436"/>
     <use style="fill:#4c72b0;fill-opacity:0.8;" x="173.329813" xlink:href="#m79bb0bdac3" y="227.600749"/>
     <use style="fill:#4c72b0;fill-opacity:0.8;" x="263.465245" xlink:href="#m79bb0bdac3" y="228.117243"/>
     <use style="fill:#4c72b0;fill-opacity:0.8;" x="332.409896" xlink:href="#m79bb0bdac3" y="222.757785"/>
     <use style="fill:#4c72b0;fill-opacity:0.8;" x="313.308348" xlink:href="#m79bb0bdac3" y="225.340252"/>
     <use style="fill:#4c72b0;fill-opacity:0.8;" x="277.29397" xlink:href="#m79bb0bdac3" y="228.982537"/>
     <use style="fill:#4c72b0;fill-opacity:0.8;" x="373.348892" xlink:href="#m79bb0bdac3" y="224.897543"/>
     <use style="fill:#4c72b0;fill-opacity:0.8;" x="203.175983" xlink:href="#m79bb0bdac3" y="228.298351"/>
     <use style="fill:#4c72b0;fill-opacity:0.8;" x="164.823655" xlink:href="#m79bb0bdac3" y="231.129004"/>
     <use style="fill:#4c72b0;fill-opacity:0.8;" x="208.050857" xlink:href="#m79bb0bdac3" y="228.694106"/>
     <use style="fill:#4c72b0;fill-opacity:0.8;" x="192.580593" xlink:href="#m79bb0bdac3" y="227.278779"/>
     <use style="fill:#4c72b0;fill-opacity:0.8;" x="161.341602" xlink:href="#m79bb0bdac3" y="224.354219"/>
     <use style="fill:#4c72b0;fill-opacity:0.8;" x="189.546232" xlink:href="#m79bb0bdac3" y="227.151333"/>
     <use style="fill:#4c72b0;fill-opacity:0.8;" x="182.532382" xlink:href="#m79bb0bdac3" y="227.30561"/>
     <use style="fill:#4c72b0;fill-opacity:0.8;" x="397.971982" xlink:href="#m79bb0bdac3" y="228.50629"/>
     <use style="fill:#4c72b0;fill-opacity:0.8;" x="162.236987" xlink:href="#m79bb0bdac3" y="224.199942"/>
     <use style="fill:#4c72b0;fill-opacity:0.8;" x="198.848288" xlink:href="#m79bb0bdac3" y="231.296696"/>
     <use style="fill:#4c72b0;fill-opacity:0.8;" x="195.117517" xlink:href="#m79bb0bdac3" y="229.425246"/>
     <use style="fill:#4c72b0;fill-opacity:0.8;" x="366.136068" xlink:href="#m79bb0bdac3" y="227.654411"/>
     <use style="fill:#4c72b0;fill-opacity:0.8;" x="353.302215" xlink:href="#m79bb0bdac3" y="225.071944"/>
     <use style="fill:#4c72b0;fill-opacity:0.8;" x="168.952375" xlink:href="#m79bb0bdac3" y="224.843882"/>
     <use style="fill:#4c72b0;fill-opacity:0.8;" x="322.311942" xlink:href="#m79bb0bdac3" y="225.206098"/>
     <use style="fill:#4c72b0;fill-opacity:0.8;" x="200.887776" xlink:href="#m79bb0bdac3" y="225.098774"/>
     <use style="fill:#4c72b0;fill-opacity:0.8;" x="337.284771" xlink:href="#m79bb0bdac3" y="231.068634"/>
     <use style="fill:#4c72b0;fill-opacity:0.8;" x="332.360153" xlink:href="#m79bb0bdac3" y="224.038957"/>
     <use style="fill:#4c72b0;fill-opacity:0.8;" x="321.565788" xlink:href="#m79bb0bdac3" y="232.410176"/>
     <use style="fill:#4c72b0;fill-opacity:0.8;" x="329.972459" xlink:href="#m79bb0bdac3" y="228.103827"/>
     <use style="fill:#4c72b0;fill-opacity:0.8;" x="526.161279" xlink:href="#m79bb0bdac3" y="225.984192"/>
     <use style="fill:#4c72b0;fill-opacity:0.8;" x="382.004281" xlink:href="#m79bb0bdac3" y="229.666723"/>
     <use style="fill:#4c72b0;fill-opacity:0.8;" x="306.742191" xlink:href="#m79bb0bdac3" y="231.57842"/>
     <use style="fill:#4c72b0;fill-opacity:0.8;" x="477.909972" xlink:href="#m79bb0bdac3" y="236.428092"/>
     <use style="fill:#4c72b0;fill-opacity:0.8;" x="379.119151" xlink:href="#m79bb0bdac3" y="234.422488"/>
     <use style="fill:#4c72b0;fill-opacity:0.8;" x="382.153512" xlink:href="#m79bb0bdac3" y="233.657809"/>
     <use style="fill:#4c72b0;fill-opacity:0.8;" x="278.686791" xlink:href="#m79bb0bdac3" y="229.331338"/>
     <use style="fill:#4c72b0;fill-opacity:0.8;" x="339.821695" xlink:href="#m79bb0bdac3" y="230.223463"/>
     <use style="fill:#4c72b0;fill-opacity:0.8;" x="211.134961" xlink:href="#m79bb0bdac3" y="237.581818"/>
     <use style="fill:#4c72b0;fill-opacity:0.8;" x="188.302642" xlink:href="#m79bb0bdac3" y="229.935032"/>
     <use style="fill:#4c72b0;fill-opacity:0.8;" x="158.406729" xlink:href="#m79bb0bdac3" y="230.257002"/>
     <use style="fill:#4c72b0;fill-opacity:0.8;" x="194.868799" xlink:href="#m79bb0bdac3" y="233.711471"/>
     <use style="fill:#4c72b0;fill-opacity:0.8;" x="163.480577" xlink:href="#m79bb0bdac3" y="227.04401"/>
     <use style="fill:#4c72b0;fill-opacity:0.8;" x="155.12365" xlink:href="#m79bb0bdac3" y="229.955155"/>
     <use style="fill:#4c72b0;fill-opacity:0.8;" x="168.255964" xlink:href="#m79bb0bdac3" y="230.853988"/>
     <use style="fill:#4c72b0;fill-opacity:0.8;" x="145.07544" xlink:href="#m79bb0bdac3" y="231.02168"/>
     <use style="fill:#4c72b0;fill-opacity:0.8;" x="177.40879" xlink:href="#m79bb0bdac3" y="230.257002"/>
     <use style="fill:#4c72b0;fill-opacity:0.8;" x="139.006718" xlink:href="#m79bb0bdac3" y="229.780754"/>
     <use style="fill:#4c72b0;fill-opacity:0.8;" x="148.806211" xlink:href="#m79bb0bdac3" y="232.510791"/>
     <use style="fill:#4c72b0;fill-opacity:0.8;" x="188.999052" xlink:href="#m79bb0bdac3" y="230.693003"/>
     <use style="fill:#4c72b0;fill-opacity:0.8;" x="172.931864" xlink:href="#m79bb0bdac3" y="229.572815"/>
     <use style="fill:#4c72b0;fill-opacity:0.8;" x="140.747745" xlink:href="#m79bb0bdac3" y="230.042355"/>
     <use style="fill:#4c72b0;fill-opacity:0.8;" x="121.745684" xlink:href="#m79bb0bdac3" y="231.484512"/>
     <use style="fill:#4c72b0;fill-opacity:0.8;" x="172.583659" xlink:href="#m79bb0bdac3" y="229.633185"/>
     <use style="fill:#4c72b0;fill-opacity:0.8;" x="137.613897" xlink:href="#m79bb0bdac3" y="227.050717"/>
     <use style="fill:#4c72b0;fill-opacity:0.8;" x="131.04774" xlink:href="#m79bb0bdac3" y="232.269314"/>
     <use style="fill:#4c72b0;fill-opacity:0.8;" x="129.853893" xlink:href="#m79bb0bdac3" y="226.527516"/>
     <use style="fill:#4c72b0;fill-opacity:0.8;" x="147.363646" xlink:href="#m79bb0bdac3" y="226.782409"/>
     <use style="fill:#4c72b0;fill-opacity:0.8;" x="138.857488" xlink:href="#m79bb0bdac3" y="228.76789"/>
     <use style="fill:#4c72b0;fill-opacity:0.8;" x="140.747745" xlink:href="#m79bb0bdac3" y="227.916012"/>
     <use style="fill:#4c72b0;fill-opacity:0.8;" x="147.463133" xlink:href="#m79bb0bdac3" y="233.946241"/>
     <use style="fill:#4c72b0;fill-opacity:0.8;" x="140.150822" xlink:href="#m79bb0bdac3" y="228.063581"/>
     <use style="fill:#4c72b0;fill-opacity:0.8;" x="172.18571" xlink:href="#m79bb0bdac3" y="227.372687"/>
     <use style="fill:#4c72b0;fill-opacity:0.8;" x="193.426234" xlink:href="#m79bb0bdac3" y="229.834416"/>
     <use style="fill:#4c72b0;fill-opacity:0.8;" x="160.545704" xlink:href="#m79bb0bdac3" y="229.928324"/>
     <use style="fill:#4c72b0;fill-opacity:0.8;" x="157.262625" xlink:href="#m79bb0bdac3" y="228.76789"/>
     <use style="fill:#4c72b0;fill-opacity:0.8;" x="168.504683" xlink:href="#m79bb0bdac3" y="228.251397"/>
     <use style="fill:#4c72b0;fill-opacity:0.8;" x="123.48671" xlink:href="#m79bb0bdac3" y="231.028388"/>
     <use style="fill:#4c72b0;fill-opacity:0.8;" x="138.559026" xlink:href="#m79bb0bdac3" y="227.506841"/>
     <use style="fill:#4c72b0;fill-opacity:0.8;" x="133.833382" xlink:href="#m79bb0bdac3" y="228.338597"/>
     <use style="fill:#4c72b0;fill-opacity:0.8;" x="135.325691" xlink:href="#m79bb0bdac3" y="234.066979"/>
     <use style="fill:#4c72b0;fill-opacity:0.8;" x="117.815938" xlink:href="#m79bb0bdac3" y="223.716987"/>
     <use style="fill:#4c72b0;fill-opacity:0.8;" x="124.282608" xlink:href="#m79bb0bdac3" y="229.599646"/>
     <use style="fill:#4c72b0;fill-opacity:0.8;" x="137.066717" xlink:href="#m79bb0bdac3" y="230.364325"/>
     <use style="fill:#4c72b0;fill-opacity:0.8;" x="136.519538" xlink:href="#m79bb0bdac3" y="228.707521"/>
     <use style="fill:#4c72b0;fill-opacity:0.8;" x="141.046207" xlink:href="#m79bb0bdac3" y="230.853988"/>
     <use style="fill:#4c72b0;fill-opacity:0.8;" x="163.580065" xlink:href="#m79bb0bdac3" y="230.163094"/>
     <use style="fill:#4c72b0;fill-opacity:0.8;" x="146.816466" xlink:href="#m79bb0bdac3" y="229.653308"/>
     <use style="fill:#4c72b0;fill-opacity:0.8;" x="143.931336" xlink:href="#m79bb0bdac3" y="229.552692"/>
     <use style="fill:#4c72b0;fill-opacity:0.8;" x="152.089289" xlink:href="#m79bb0bdac3" y="230.183217"/>
     <use style="fill:#4c72b0;fill-opacity:0.8;" x="151.094417" xlink:href="#m79bb0bdac3" y="230.324079"/>
     <use style="fill:#4c72b0;fill-opacity:0.8;" x="141.444156" xlink:href="#m79bb0bdac3" y="231.417435"/>
     <use style="fill:#4c72b0;fill-opacity:0.8;" x="145.77185" xlink:href="#m79bb0bdac3" y="229.277676"/>
     <use style="fill:#4c72b0;fill-opacity:0.8;" x="148.706724" xlink:href="#m79bb0bdac3" y="228.170905"/>
     <use style="fill:#4c72b0;fill-opacity:0.8;" x="127.267225" xlink:href="#m79bb0bdac3" y="234.221257"/>
     <use style="fill:#4c72b0;fill-opacity:0.8;" x="127.714918" xlink:href="#m79bb0bdac3" y="227.30561"/>
     <use style="fill:#4c72b0;fill-opacity:0.8;" x="145.274414" xlink:href="#m79bb0bdac3" y="231.886974"/>
     <use style="fill:#4c72b0;fill-opacity:0.8;" x="142.339541" xlink:href="#m79bb0bdac3" y="228.908752"/>
     <use style="fill:#4c72b0;fill-opacity:0.8;" x="151.69134" xlink:href="#m79bb0bdac3" y="229.579523"/>
    </g>
   </g>
   <g id="line2d_13">
    <path clip-path="url(#pf0838e615f)" d="M 68.718989 218.150161 
L 100.654391 221.882016 
L 131.04774 225.416338 
L 137.613897 225.962707 
L 143.931336 226.367865 
L 158.406729 226.872191 
L 168.255964 226.564203 
L 198.848288 225.000106 
L 225.162661 225.010893 
L 234.514461 225.190793 
L 246.502672 225.509167 
L 313.308348 226.581564 
L 397.971982 228.14535 
L 526.161279 230.343332 
L 526.161279 230.343332 
" style="fill:none;stroke:#4c72b0;stroke-linecap:round;stroke-width:2.625;"/>
   </g>
   <g id="patch_3">
    <path d="M 45.846875 247.2 
L 45.846875 35.6 
" style="fill:none;"/>
   </g>
   <g id="patch_4">
    <path d="M 549.033394 247.2 
L 549.033394 35.6 
" style="fill:none;"/>
   </g>
   <g id="patch_5">
    <path d="M 45.846875 247.2 
L 549.033394 247.2 
" style="fill:none;"/>
   </g>
   <g id="patch_6">
    <path d="M 45.846875 35.6 
L 549.033394 35.6 
" style="fill:none;"/>
   </g>
  </g>
  <g id="text_15">
   <!-- Scatter Plot of each Continuous Variable vs Target -->
   <g style="fill:#262626;" transform="translate(373.105078 8.039531)scale(0.15 -0.15)">
    <defs>
     <path d="M 288 1472 
L 859 1522 
Q 900 1178 1048 958 
Q 1197 738 1509 602 
Q 1822 466 2213 466 
Q 2559 466 2825 569 
Q 3091 672 3220 851 
Q 3350 1031 3350 1244 
Q 3350 1459 3225 1620 
Q 3100 1781 2813 1891 
Q 2628 1963 1997 2114 
Q 1366 2266 1113 2400 
Q 784 2572 623 2826 
Q 463 3081 463 3397 
Q 463 3744 659 4045 
Q 856 4347 1234 4503 
Q 1613 4659 2075 4659 
Q 2584 4659 2973 4495 
Q 3363 4331 3572 4012 
Q 3781 3694 3797 3291 
L 3216 3247 
Q 3169 3681 2898 3903 
Q 2628 4125 2100 4125 
Q 1550 4125 1298 3923 
Q 1047 3722 1047 3438 
Q 1047 3191 1225 3031 
Q 1400 2872 2139 2705 
Q 2878 2538 3153 2413 
Q 3553 2228 3743 1945 
Q 3934 1663 3934 1294 
Q 3934 928 3725 604 
Q 3516 281 3123 101 
Q 2731 -78 2241 -78 
Q 1619 -78 1198 103 
Q 778 284 539 648 
Q 300 1013 288 1472 
z
" id="ArialMT-53" transform="scale(0.015625)"/>
     <path d="M 416 0 
L 416 3319 
L 922 3319 
L 922 2816 
Q 1116 3169 1280 3281 
Q 1444 3394 1641 3394 
Q 1925 3394 2219 3213 
L 2025 2691 
Q 1819 2813 1613 2813 
Q 1428 2813 1281 2702 
Q 1134 2591 1072 2394 
Q 978 2094 978 1738 
L 978 0 
L 416 0 
z
" id="ArialMT-72" transform="scale(0.015625)"/>
     <path d="M 494 0 
L 494 4581 
L 2222 4581 
Q 2678 4581 2919 4538 
Q 3256 4481 3484 4323 
Q 3713 4166 3852 3881 
Q 3991 3597 3991 3256 
Q 3991 2672 3619 2267 
Q 3247 1863 2275 1863 
L 1100 1863 
L 1100 0 
L 494 0 
z
M 1100 2403 
L 2284 2403 
Q 2872 2403 3119 2622 
Q 3366 2841 3366 3238 
Q 3366 3525 3220 3729 
Q 3075 3934 2838 4000 
Q 2684 4041 2272 4041 
L 1100 4041 
L 1100 2403 
z
" id="ArialMT-50" transform="scale(0.015625)"/>
     <path d="M 213 1659 
Q 213 2581 725 3025 
Q 1153 3394 1769 3394 
Q 2453 3394 2887 2945 
Q 3322 2497 3322 1706 
Q 3322 1066 3130 698 
Q 2938 331 2570 128 
Q 2203 -75 1769 -75 
Q 1072 -75 642 372 
Q 213 819 213 1659 
z
M 791 1659 
Q 791 1022 1069 705 
Q 1347 388 1769 388 
Q 2188 388 2466 706 
Q 2744 1025 2744 1678 
Q 2744 2294 2464 2611 
Q 2184 2928 1769 2928 
Q 1347 2928 1069 2612 
Q 791 2297 791 1659 
z
" id="ArialMT-6f" transform="scale(0.015625)"/>
     <path d="M 556 0 
L 556 2881 
L 59 2881 
L 59 3319 
L 556 3319 
L 556 3672 
Q 556 4006 616 4169 
Q 697 4388 901 4523 
Q 1106 4659 1475 4659 
Q 1713 4659 2000 4603 
L 1916 4113 
Q 1741 4144 1584 4144 
Q 1328 4144 1222 4034 
Q 1116 3925 1116 3625 
L 1116 3319 
L 1763 3319 
L 1763 2881 
L 1116 2881 
L 1116 0 
L 556 0 
z
" id="ArialMT-66" transform="scale(0.015625)"/>
     <path d="M 422 0 
L 422 4581 
L 984 4581 
L 984 2938 
Q 1378 3394 1978 3394 
Q 2347 3394 2619 3248 
Q 2891 3103 3008 2847 
Q 3125 2591 3125 2103 
L 3125 0 
L 2563 0 
L 2563 2103 
Q 2563 2525 2380 2717 
Q 2197 2909 1863 2909 
Q 1613 2909 1392 2779 
Q 1172 2650 1078 2428 
Q 984 2206 984 1816 
L 984 0 
L 422 0 
z
" id="ArialMT-68" transform="scale(0.015625)"/>
     <path d="M 2597 0 
L 2597 488 
Q 2209 -75 1544 -75 
Q 1250 -75 995 37 
Q 741 150 617 320 
Q 494 491 444 738 
Q 409 903 409 1263 
L 409 3319 
L 972 3319 
L 972 1478 
Q 972 1038 1006 884 
Q 1059 663 1231 536 
Q 1403 409 1656 409 
Q 1909 409 2131 539 
Q 2353 669 2445 892 
Q 2538 1116 2538 1541 
L 2538 3319 
L 3100 3319 
L 3100 0 
L 2597 0 
z
" id="ArialMT-75" transform="scale(0.015625)"/>
     <path d="M 197 991 
L 753 1078 
Q 800 744 1014 566 
Q 1228 388 1613 388 
Q 2000 388 2187 545 
Q 2375 703 2375 916 
Q 2375 1106 2209 1216 
Q 2094 1291 1634 1406 
Q 1016 1563 777 1677 
Q 538 1791 414 1992 
Q 291 2194 291 2438 
Q 291 2659 392 2848 
Q 494 3038 669 3163 
Q 800 3259 1026 3326 
Q 1253 3394 1513 3394 
Q 1903 3394 2198 3281 
Q 2494 3169 2634 2976 
Q 2775 2784 2828 2463 
L 2278 2388 
Q 2241 2644 2061 2787 
Q 1881 2931 1553 2931 
Q 1166 2931 1000 2803 
Q 834 2675 834 2503 
Q 834 2394 903 2306 
Q 972 2216 1119 2156 
Q 1203 2125 1616 2013 
Q 2213 1853 2448 1751 
Q 2684 1650 2818 1456 
Q 2953 1263 2953 975 
Q 2953 694 2789 445 
Q 2625 197 2315 61 
Q 2006 -75 1616 -75 
Q 969 -75 630 194 
Q 291 463 197 991 
z
" id="ArialMT-73" transform="scale(0.015625)"/>
     <path d="M 1803 0 
L 28 4581 
L 684 4581 
L 1875 1253 
Q 2019 853 2116 503 
Q 2222 878 2363 1253 
L 3600 4581 
L 4219 4581 
L 2425 0 
L 1803 0 
z
" id="ArialMT-56" transform="scale(0.015625)"/>
     <path d="M 941 0 
L 419 0 
L 419 4581 
L 981 4581 
L 981 2947 
Q 1338 3394 1891 3394 
Q 2197 3394 2470 3270 
Q 2744 3147 2920 2923 
Q 3097 2700 3197 2384 
Q 3297 2069 3297 1709 
Q 3297 856 2875 390 
Q 2453 -75 1863 -75 
Q 1275 -75 941 416 
L 941 0 
z
M 934 1684 
Q 934 1088 1097 822 
Q 1363 388 1816 388 
Q 2184 388 2453 708 
Q 2722 1028 2722 1663 
Q 2722 2313 2464 2622 
Q 2206 2931 1841 2931 
Q 1472 2931 1203 2611 
Q 934 2291 934 1684 
z
" id="ArialMT-62" transform="scale(0.015625)"/>
     <path d="M 1344 0 
L 81 3319 
L 675 3319 
L 1388 1331 
Q 1503 1009 1600 663 
Q 1675 925 1809 1294 
L 2547 3319 
L 3125 3319 
L 1869 0 
L 1344 0 
z
" id="ArialMT-76" transform="scale(0.015625)"/>
     <path d="M 1659 0 
L 1659 4041 
L 150 4041 
L 150 4581 
L 3781 4581 
L 3781 4041 
L 2266 4041 
L 2266 0 
L 1659 0 
z
" id="ArialMT-54" transform="scale(0.015625)"/>
     <path d="M 319 -275 
L 866 -356 
Q 900 -609 1056 -725 
Q 1266 -881 1628 -881 
Q 2019 -881 2231 -725 
Q 2444 -569 2519 -288 
Q 2563 -116 2559 434 
Q 2191 0 1641 0 
Q 956 0 581 494 
Q 206 988 206 1678 
Q 206 2153 378 2554 
Q 550 2956 876 3175 
Q 1203 3394 1644 3394 
Q 2231 3394 2613 2919 
L 2613 3319 
L 3131 3319 
L 3131 450 
Q 3131 -325 2973 -648 
Q 2816 -972 2473 -1159 
Q 2131 -1347 1631 -1347 
Q 1038 -1347 672 -1080 
Q 306 -813 319 -275 
z
M 784 1719 
Q 784 1066 1043 766 
Q 1303 466 1694 466 
Q 2081 466 2343 764 
Q 2606 1063 2606 1700 
Q 2606 2309 2336 2618 
Q 2066 2928 1684 2928 
Q 1309 2928 1046 2623 
Q 784 2319 784 1719 
z
" id="ArialMT-67" transform="scale(0.015625)"/>
    </defs>
    <use xlink:href="#ArialMT-53"/>
    <use x="66.699219" xlink:href="#ArialMT-63"/>
    <use x="116.699219" xlink:href="#ArialMT-61"/>
    <use x="172.314453" xlink:href="#ArialMT-74"/>
    <use x="200.097656" xlink:href="#ArialMT-74"/>
    <use x="227.880859" xlink:href="#ArialMT-65"/>
    <use x="283.496094" xlink:href="#ArialMT-72"/>
    <use x="316.796875" xlink:href="#ArialMT-20"/>
    <use x="344.580078" xlink:href="#ArialMT-50"/>
    <use x="411.279297" xlink:href="#ArialMT-6c"/>
    <use x="433.496094" xlink:href="#ArialMT-6f"/>
    <use x="489.111328" xlink:href="#ArialMT-74"/>
    <use x="516.894531" xlink:href="#ArialMT-20"/>
    <use x="544.677734" xlink:href="#ArialMT-6f"/>
    <use x="600.292969" xlink:href="#ArialMT-66"/>
    <use x="628.076172" xlink:href="#ArialMT-20"/>
    <use x="655.859375" xlink:href="#ArialMT-65"/>
    <use x="711.474609" xlink:href="#ArialMT-61"/>
    <use x="767.089844" xlink:href="#ArialMT-63"/>
    <use x="817.089844" xlink:href="#ArialMT-68"/>
    <use x="872.705078" xlink:href="#ArialMT-20"/>
    <use x="900.488281" xlink:href="#ArialMT-43"/>
    <use x="972.705078" xlink:href="#ArialMT-6f"/>
    <use x="1028.320312" xlink:href="#ArialMT-6e"/>
    <use x="1083.935547" xlink:href="#ArialMT-74"/>
    <use x="1111.71875" xlink:href="#ArialMT-69"/>
    <use x="1133.935547" xlink:href="#ArialMT-6e"/>
    <use x="1189.550781" xlink:href="#ArialMT-75"/>
    <use x="1245.166016" xlink:href="#ArialMT-6f"/>
    <use x="1300.78125" xlink:href="#ArialMT-75"/>
    <use x="1356.396484" xlink:href="#ArialMT-73"/>
    <use x="1406.396484" xlink:href="#ArialMT-20"/>
    <use x="1434.179688" xlink:href="#ArialMT-56"/>
    <use x="1493.503906" xlink:href="#ArialMT-61"/>
    <use x="1549.119141" xlink:href="#ArialMT-72"/>
    <use x="1582.419922" xlink:href="#ArialMT-69"/>
    <use x="1604.636719" xlink:href="#ArialMT-61"/>
    <use x="1660.251953" xlink:href="#ArialMT-62"/>
    <use x="1715.867188" xlink:href="#ArialMT-6c"/>
    <use x="1738.083984" xlink:href="#ArialMT-65"/>
    <use x="1793.699219" xlink:href="#ArialMT-20"/>
    <use x="1821.482422" xlink:href="#ArialMT-76"/>
    <use x="1871.482422" xlink:href="#ArialMT-73"/>
    <use x="1921.482422" xlink:href="#ArialMT-20"/>
    <use x="1947.515625" xlink:href="#ArialMT-54"/>
    <use x="1997.474609" xlink:href="#ArialMT-61"/>
    <use x="2053.089844" xlink:href="#ArialMT-72"/>
    <use x="2086.390625" xlink:href="#ArialMT-67"/>
    <use x="2142.005859" xlink:href="#ArialMT-65"/>
    <use x="2197.621094" xlink:href="#ArialMT-74"/>
   </g>
  </g>
 </g>
 <defs>
  <clipPath id="pf0838e615f">
   <rect height="211.6" width="503.186519" x="45.846875" y="35.6"/>
  </clipPath>
 </defs>
</svg>
