<?xml version="1.0" encoding="utf-8" standalone="no"?>
<!DOCTYPE svg PUBLIC "-//W3C//DTD SVG 1.1//EN"
  "http://www.w3.org/Graphics/SVG/1.1/DTD/svg11.dtd">
<svg height="288pt" version="1.1" viewBox="0 0 1080 288" width="1080pt" xmlns="http://www.w3.org/2000/svg" xmlns:xlink="http://www.w3.org/1999/xlink">
 <metadata>
  <rdf:RDF xmlns:cc="http://creativecommons.org/ns#" xmlns:dc="http://purl.org/dc/elements/1.1/" xmlns:rdf="http://www.w3.org/1999/02/22-rdf-syntax-ns#">
   <cc:Work>
    <dc:type rdf:resource="http://purl.org/dc/dcmitype/StillImage"/>
    <dc:date>2021-11-04T13:12:31.701424</dc:date>
    <dc:format>image/svg+xml</dc:format>
    <dc:creator>
     <cc:Agent>
      <dc:title>Matplotlib v3.4.3, https://matplotlib.org/</dc:title>
     </cc:Agent>
    </dc:creator>
   </cc:Work>
  </rdf:RDF>
 </metadata>
 <defs>
  <style type="text/css">*{stroke-linecap:butt;stroke-linejoin:round;}</style>
 </defs>
 <g id="figure_1">
  <g id="patch_1">
   <path d="M 0 288 
L 1080 288 
L 1080 0 
L 0 0 
z
" style="fill:none;"/>
  </g>
  <g id="axes_1">
   <g id="patch_2">
    <path d="M 29.3 261.2 
L 1069.2 261.2 
L 1069.2 35.6 
L 29.3 35.6 
z
" style="fill:#eaeaf2;"/>
   </g>
   <g id="matplotlib.axis_1">
    <g id="xtick_1">
     <g id="text_1">
      <!-- Click Rate -->
      <g style="fill:#262626;" transform="translate(266.492188 275.357813)scale(0.1 -0.1)">
       <defs>
        <path d="M 3763 1606 
L 4369 1453 
Q 4178 706 3683 314 
Q 3188 -78 2472 -78 
Q 1731 -78 1267 223 
Q 803 525 561 1097 
Q 319 1669 319 2325 
Q 319 3041 592 3573 
Q 866 4106 1370 4382 
Q 1875 4659 2481 4659 
Q 3169 4659 3637 4309 
Q 4106 3959 4291 3325 
L 3694 3184 
Q 3534 3684 3231 3912 
Q 2928 4141 2469 4141 
Q 1941 4141 1586 3887 
Q 1231 3634 1087 3207 
Q 944 2781 944 2328 
Q 944 1744 1114 1308 
Q 1284 872 1643 656 
Q 2003 441 2422 441 
Q 2931 441 3284 734 
Q 3638 1028 3763 1606 
z
" id="ArialMT-43" transform="scale(0.015625)"/>
        <path d="M 409 0 
L 409 4581 
L 972 4581 
L 972 0 
L 409 0 
z
" id="ArialMT-6c" transform="scale(0.015625)"/>
        <path d="M 425 3934 
L 425 4581 
L 988 4581 
L 988 3934 
L 425 3934 
z
M 425 0 
L 425 3319 
L 988 3319 
L 988 0 
L 425 0 
z
" id="ArialMT-69" transform="scale(0.015625)"/>
        <path d="M 2588 1216 
L 3141 1144 
Q 3050 572 2676 248 
Q 2303 -75 1759 -75 
Q 1078 -75 664 370 
Q 250 816 250 1647 
Q 250 2184 428 2587 
Q 606 2991 970 3192 
Q 1334 3394 1763 3394 
Q 2303 3394 2647 3120 
Q 2991 2847 3088 2344 
L 2541 2259 
Q 2463 2594 2264 2762 
Q 2066 2931 1784 2931 
Q 1359 2931 1093 2626 
Q 828 2322 828 1663 
Q 828 994 1084 691 
Q 1341 388 1753 388 
Q 2084 388 2306 591 
Q 2528 794 2588 1216 
z
" id="ArialMT-63" transform="scale(0.015625)"/>
        <path d="M 425 0 
L 425 4581 
L 988 4581 
L 988 1969 
L 2319 3319 
L 3047 3319 
L 1778 2088 
L 3175 0 
L 2481 0 
L 1384 1697 
L 988 1316 
L 988 0 
L 425 0 
z
" id="ArialMT-6b" transform="scale(0.015625)"/>
        <path id="ArialMT-20" transform="scale(0.015625)"/>
        <path d="M 503 0 
L 503 4581 
L 2534 4581 
Q 3147 4581 3465 4457 
Q 3784 4334 3975 4021 
Q 4166 3709 4166 3331 
Q 4166 2844 3850 2509 
Q 3534 2175 2875 2084 
Q 3116 1969 3241 1856 
Q 3506 1613 3744 1247 
L 4541 0 
L 3778 0 
L 3172 953 
Q 2906 1366 2734 1584 
Q 2563 1803 2427 1890 
Q 2291 1978 2150 2013 
Q 2047 2034 1813 2034 
L 1109 2034 
L 1109 0 
L 503 0 
z
M 1109 2559 
L 2413 2559 
Q 2828 2559 3062 2645 
Q 3297 2731 3419 2920 
Q 3541 3109 3541 3331 
Q 3541 3656 3305 3865 
Q 3069 4075 2559 4075 
L 1109 4075 
L 1109 2559 
z
" id="ArialMT-52" transform="scale(0.015625)"/>
        <path d="M 2588 409 
Q 2275 144 1986 34 
Q 1697 -75 1366 -75 
Q 819 -75 525 192 
Q 231 459 231 875 
Q 231 1119 342 1320 
Q 453 1522 633 1644 
Q 813 1766 1038 1828 
Q 1203 1872 1538 1913 
Q 2219 1994 2541 2106 
Q 2544 2222 2544 2253 
Q 2544 2597 2384 2738 
Q 2169 2928 1744 2928 
Q 1347 2928 1158 2789 
Q 969 2650 878 2297 
L 328 2372 
Q 403 2725 575 2942 
Q 747 3159 1072 3276 
Q 1397 3394 1825 3394 
Q 2250 3394 2515 3294 
Q 2781 3194 2906 3042 
Q 3031 2891 3081 2659 
Q 3109 2516 3109 2141 
L 3109 1391 
Q 3109 606 3145 398 
Q 3181 191 3288 0 
L 2700 0 
Q 2613 175 2588 409 
z
M 2541 1666 
Q 2234 1541 1622 1453 
Q 1275 1403 1131 1340 
Q 988 1278 909 1158 
Q 831 1038 831 891 
Q 831 666 1001 516 
Q 1172 366 1500 366 
Q 1825 366 2078 508 
Q 2331 650 2450 897 
Q 2541 1088 2541 1459 
L 2541 1666 
z
" id="ArialMT-61" transform="scale(0.015625)"/>
        <path d="M 1650 503 
L 1731 6 
Q 1494 -44 1306 -44 
Q 1000 -44 831 53 
Q 663 150 594 308 
Q 525 466 525 972 
L 525 2881 
L 113 2881 
L 113 3319 
L 525 3319 
L 525 4141 
L 1084 4478 
L 1084 3319 
L 1650 3319 
L 1650 2881 
L 1084 2881 
L 1084 941 
Q 1084 700 1114 631 
Q 1144 563 1211 522 
Q 1278 481 1403 481 
Q 1497 481 1650 503 
z
" id="ArialMT-74" transform="scale(0.015625)"/>
        <path d="M 2694 1069 
L 3275 997 
Q 3138 488 2766 206 
Q 2394 -75 1816 -75 
Q 1088 -75 661 373 
Q 234 822 234 1631 
Q 234 2469 665 2931 
Q 1097 3394 1784 3394 
Q 2450 3394 2872 2941 
Q 3294 2488 3294 1666 
Q 3294 1616 3291 1516 
L 816 1516 
Q 847 969 1125 678 
Q 1403 388 1819 388 
Q 2128 388 2347 550 
Q 2566 713 2694 1069 
z
M 847 1978 
L 2700 1978 
Q 2663 2397 2488 2606 
Q 2219 2931 1791 2931 
Q 1403 2931 1139 2672 
Q 875 2413 847 1978 
z
" id="ArialMT-65" transform="scale(0.015625)"/>
       </defs>
       <use xlink:href="#ArialMT-43"/>
       <use x="72.216797" xlink:href="#ArialMT-6c"/>
       <use x="94.433594" xlink:href="#ArialMT-69"/>
       <use x="116.650391" xlink:href="#ArialMT-63"/>
       <use x="166.650391" xlink:href="#ArialMT-6b"/>
       <use x="216.650391" xlink:href="#ArialMT-20"/>
       <use x="244.433594" xlink:href="#ArialMT-52"/>
       <use x="316.650391" xlink:href="#ArialMT-61"/>
       <use x="372.265625" xlink:href="#ArialMT-74"/>
       <use x="400.048828" xlink:href="#ArialMT-65"/>
      </g>
     </g>
    </g>
    <g id="xtick_2">
     <g id="text_2">
      <!-- Open Rate -->
      <g style="fill:#262626;" transform="translate(785.044531 275.485937)scale(0.1 -0.1)">
       <defs>
        <path d="M 309 2231 
Q 309 3372 921 4017 
Q 1534 4663 2503 4663 
Q 3138 4663 3647 4359 
Q 4156 4056 4423 3514 
Q 4691 2972 4691 2284 
Q 4691 1588 4409 1038 
Q 4128 488 3612 205 
Q 3097 -78 2500 -78 
Q 1853 -78 1343 234 
Q 834 547 571 1087 
Q 309 1628 309 2231 
z
M 934 2222 
Q 934 1394 1379 917 
Q 1825 441 2497 441 
Q 3181 441 3623 922 
Q 4066 1403 4066 2288 
Q 4066 2847 3877 3264 
Q 3688 3681 3323 3911 
Q 2959 4141 2506 4141 
Q 1863 4141 1398 3698 
Q 934 3256 934 2222 
z
" id="ArialMT-4f" transform="scale(0.015625)"/>
        <path d="M 422 -1272 
L 422 3319 
L 934 3319 
L 934 2888 
Q 1116 3141 1344 3267 
Q 1572 3394 1897 3394 
Q 2322 3394 2647 3175 
Q 2972 2956 3137 2557 
Q 3303 2159 3303 1684 
Q 3303 1175 3120 767 
Q 2938 359 2589 142 
Q 2241 -75 1856 -75 
Q 1575 -75 1351 44 
Q 1128 163 984 344 
L 984 -1272 
L 422 -1272 
z
M 931 1641 
Q 931 1000 1190 694 
Q 1450 388 1819 388 
Q 2194 388 2461 705 
Q 2728 1022 2728 1688 
Q 2728 2322 2467 2637 
Q 2206 2953 1844 2953 
Q 1484 2953 1207 2617 
Q 931 2281 931 1641 
z
" id="ArialMT-70" transform="scale(0.015625)"/>
        <path d="M 422 0 
L 422 3319 
L 928 3319 
L 928 2847 
Q 1294 3394 1984 3394 
Q 2284 3394 2536 3286 
Q 2788 3178 2913 3003 
Q 3038 2828 3088 2588 
Q 3119 2431 3119 2041 
L 3119 0 
L 2556 0 
L 2556 2019 
Q 2556 2363 2490 2533 
Q 2425 2703 2258 2804 
Q 2091 2906 1866 2906 
Q 1506 2906 1245 2678 
Q 984 2450 984 1813 
L 984 0 
L 422 0 
z
" id="ArialMT-6e" transform="scale(0.015625)"/>
       </defs>
       <use xlink:href="#ArialMT-4f"/>
       <use x="77.783203" xlink:href="#ArialMT-70"/>
       <use x="133.398438" xlink:href="#ArialMT-65"/>
       <use x="189.013672" xlink:href="#ArialMT-6e"/>
       <use x="244.628906" xlink:href="#ArialMT-20"/>
       <use x="272.412109" xlink:href="#ArialMT-52"/>
       <use x="344.628906" xlink:href="#ArialMT-61"/>
       <use x="400.244141" xlink:href="#ArialMT-74"/>
       <use x="428.027344" xlink:href="#ArialMT-65"/>
      </g>
     </g>
    </g>
   </g>
   <g id="matplotlib.axis_2">
    <g id="ytick_1">
     <g id="line2d_1">
      <path clip-path="url(#pf0ac02b53e)" d="M 29.3 252.853337 
L 1069.2 252.853337 
" style="fill:none;stroke:#ffffff;stroke-linecap:round;"/>
     </g>
     <g id="text_3">
      <!-- −2 -->
      <g style="fill:#262626;" transform="translate(10.898437 256.432243)scale(0.1 -0.1)">
       <defs>
        <path d="M 3381 1997 
L 356 1997 
L 356 2522 
L 3381 2522 
L 3381 1997 
z
" id="ArialMT-2212" transform="scale(0.015625)"/>
        <path d="M 3222 541 
L 3222 0 
L 194 0 
Q 188 203 259 391 
Q 375 700 629 1000 
Q 884 1300 1366 1694 
Q 2113 2306 2375 2664 
Q 2638 3022 2638 3341 
Q 2638 3675 2398 3904 
Q 2159 4134 1775 4134 
Q 1369 4134 1125 3890 
Q 881 3647 878 3216 
L 300 3275 
Q 359 3922 746 4261 
Q 1134 4600 1788 4600 
Q 2447 4600 2831 4234 
Q 3216 3869 3216 3328 
Q 3216 3053 3103 2787 
Q 2991 2522 2730 2228 
Q 2469 1934 1863 1422 
Q 1356 997 1212 845 
Q 1069 694 975 541 
L 3222 541 
z
" id="ArialMT-32" transform="scale(0.015625)"/>
       </defs>
       <use xlink:href="#ArialMT-2212"/>
       <use x="58.398438" xlink:href="#ArialMT-32"/>
      </g>
     </g>
    </g>
    <g id="ytick_2">
     <g id="line2d_2">
      <path clip-path="url(#pf0ac02b53e)" d="M 29.3 219.475249 
L 1069.2 219.475249 
" style="fill:none;stroke:#ffffff;stroke-linecap:round;"/>
     </g>
     <g id="text_4">
      <!-- 0 -->
      <g style="fill:#262626;" transform="translate(16.739062 223.054156)scale(0.1 -0.1)">
       <defs>
        <path d="M 266 2259 
Q 266 3072 433 3567 
Q 600 4063 929 4331 
Q 1259 4600 1759 4600 
Q 2128 4600 2406 4451 
Q 2684 4303 2865 4023 
Q 3047 3744 3150 3342 
Q 3253 2941 3253 2259 
Q 3253 1453 3087 958 
Q 2922 463 2592 192 
Q 2263 -78 1759 -78 
Q 1097 -78 719 397 
Q 266 969 266 2259 
z
M 844 2259 
Q 844 1131 1108 757 
Q 1372 384 1759 384 
Q 2147 384 2411 759 
Q 2675 1134 2675 2259 
Q 2675 3391 2411 3762 
Q 2147 4134 1753 4134 
Q 1366 4134 1134 3806 
Q 844 3388 844 2259 
z
" id="ArialMT-30" transform="scale(0.015625)"/>
       </defs>
       <use xlink:href="#ArialMT-30"/>
      </g>
     </g>
    </g>
    <g id="ytick_3">
     <g id="line2d_3">
      <path clip-path="url(#pf0ac02b53e)" d="M 29.3 186.097162 
L 1069.2 186.097162 
" style="fill:none;stroke:#ffffff;stroke-linecap:round;"/>
     </g>
     <g id="text_5">
      <!-- 2 -->
      <g style="fill:#262626;" transform="translate(16.739062 189.676068)scale(0.1 -0.1)">
       <use xlink:href="#ArialMT-32"/>
      </g>
     </g>
    </g>
    <g id="ytick_4">
     <g id="line2d_4">
      <path clip-path="url(#pf0ac02b53e)" d="M 29.3 152.719074 
L 1069.2 152.719074 
" style="fill:none;stroke:#ffffff;stroke-linecap:round;"/>
     </g>
     <g id="text_6">
      <!-- 4 -->
      <g style="fill:#262626;" transform="translate(16.739062 156.29798)scale(0.1 -0.1)">
       <defs>
        <path d="M 2069 0 
L 2069 1097 
L 81 1097 
L 81 1613 
L 2172 4581 
L 2631 4581 
L 2631 1613 
L 3250 1613 
L 3250 1097 
L 2631 1097 
L 2631 0 
L 2069 0 
z
M 2069 1613 
L 2069 3678 
L 634 1613 
L 2069 1613 
z
" id="ArialMT-34" transform="scale(0.015625)"/>
       </defs>
       <use xlink:href="#ArialMT-34"/>
      </g>
     </g>
    </g>
    <g id="ytick_5">
     <g id="line2d_5">
      <path clip-path="url(#pf0ac02b53e)" d="M 29.3 119.340987 
L 1069.2 119.340987 
" style="fill:none;stroke:#ffffff;stroke-linecap:round;"/>
     </g>
     <g id="text_7">
      <!-- 6 -->
      <g style="fill:#262626;" transform="translate(16.739062 122.919893)scale(0.1 -0.1)">
       <defs>
        <path d="M 3184 3459 
L 2625 3416 
Q 2550 3747 2413 3897 
Q 2184 4138 1850 4138 
Q 1581 4138 1378 3988 
Q 1113 3794 959 3422 
Q 806 3050 800 2363 
Q 1003 2672 1297 2822 
Q 1591 2972 1913 2972 
Q 2475 2972 2870 2558 
Q 3266 2144 3266 1488 
Q 3266 1056 3080 686 
Q 2894 316 2569 119 
Q 2244 -78 1831 -78 
Q 1128 -78 684 439 
Q 241 956 241 2144 
Q 241 3472 731 4075 
Q 1159 4600 1884 4600 
Q 2425 4600 2770 4297 
Q 3116 3994 3184 3459 
z
M 888 1484 
Q 888 1194 1011 928 
Q 1134 663 1356 523 
Q 1578 384 1822 384 
Q 2178 384 2434 671 
Q 2691 959 2691 1453 
Q 2691 1928 2437 2201 
Q 2184 2475 1800 2475 
Q 1419 2475 1153 2201 
Q 888 1928 888 1484 
z
" id="ArialMT-36" transform="scale(0.015625)"/>
       </defs>
       <use xlink:href="#ArialMT-36"/>
      </g>
     </g>
    </g>
    <g id="ytick_6">
     <g id="line2d_6">
      <path clip-path="url(#pf0ac02b53e)" d="M 29.3 85.962899 
L 1069.2 85.962899 
" style="fill:none;stroke:#ffffff;stroke-linecap:round;"/>
     </g>
     <g id="text_8">
      <!-- 8 -->
      <g style="fill:#262626;" transform="translate(16.739062 89.541805)scale(0.1 -0.1)">
       <defs>
        <path d="M 1131 2484 
Q 781 2613 612 2850 
Q 444 3088 444 3419 
Q 444 3919 803 4259 
Q 1163 4600 1759 4600 
Q 2359 4600 2725 4251 
Q 3091 3903 3091 3403 
Q 3091 3084 2923 2848 
Q 2756 2613 2416 2484 
Q 2838 2347 3058 2040 
Q 3278 1734 3278 1309 
Q 3278 722 2862 322 
Q 2447 -78 1769 -78 
Q 1091 -78 675 323 
Q 259 725 259 1325 
Q 259 1772 486 2073 
Q 713 2375 1131 2484 
z
M 1019 3438 
Q 1019 3113 1228 2906 
Q 1438 2700 1772 2700 
Q 2097 2700 2305 2904 
Q 2513 3109 2513 3406 
Q 2513 3716 2298 3927 
Q 2084 4138 1766 4138 
Q 1444 4138 1231 3931 
Q 1019 3725 1019 3438 
z
M 838 1322 
Q 838 1081 952 856 
Q 1066 631 1291 507 
Q 1516 384 1775 384 
Q 2178 384 2440 643 
Q 2703 903 2703 1303 
Q 2703 1709 2433 1975 
Q 2163 2241 1756 2241 
Q 1359 2241 1098 1978 
Q 838 1716 838 1322 
z
" id="ArialMT-38" transform="scale(0.015625)"/>
       </defs>
       <use xlink:href="#ArialMT-38"/>
      </g>
     </g>
    </g>
    <g id="ytick_7">
     <g id="line2d_7">
      <path clip-path="url(#pf0ac02b53e)" d="M 29.3 52.584812 
L 1069.2 52.584812 
" style="fill:none;stroke:#ffffff;stroke-linecap:round;"/>
     </g>
     <g id="text_9">
      <!-- 10 -->
      <g style="fill:#262626;" transform="translate(11.178125 56.163718)scale(0.1 -0.1)">
       <defs>
        <path d="M 2384 0 
L 1822 0 
L 1822 3584 
Q 1619 3391 1289 3197 
Q 959 3003 697 2906 
L 697 3450 
Q 1169 3672 1522 3987 
Q 1875 4303 2022 4600 
L 2384 4600 
L 2384 0 
z
" id="ArialMT-31" transform="scale(0.015625)"/>
       </defs>
       <use xlink:href="#ArialMT-31"/>
       <use x="55.615234" xlink:href="#ArialMT-30"/>
      </g>
     </g>
    </g>
   </g>
   <g id="PolyCollection_1">
    <defs>
     <path d="M 292.663828 -37.054545 
L 285.886172 -37.054545 
L 283.851358 -38.158681 
L 280.882152 -39.262817 
L 276.710577 -40.366952 
L 271.066846 -41.471088 
L 263.712862 -42.575224 
L 254.48122 -43.679359 
L 243.313234 -44.783495 
L 230.288102 -45.887631 
L 215.635909 -46.991766 
L 199.730058 -48.095902 
L 183.059193 -49.200038 
L 166.183646 -50.304173 
L 149.684996 -51.408309 
L 134.118482 -52.512445 
L 119.97612 -53.61658 
L 107.66435 -54.720716 
L 97.49537 -55.824852 
L 89.687727 -56.928987 
L 84.37054 -58.033123 
L 81.586913 -59.137259 
L 81.295 -60.241394 
L 83.368241 -61.34553 
L 87.598274 -62.449666 
L 93.704214 -63.553801 
L 101.350365 -64.657937 
L 110.171889 -65.762073 
L 119.805238 -66.866208 
L 129.918357 -67.970344 
L 140.235115 -69.07448 
L 150.549311 -70.178615 
L 160.725746 -71.282751 
L 170.688612 -72.386887 
L 180.400403 -73.491022 
L 189.836703 -74.595158 
L 198.963224 -75.699294 
L 207.720746 -76.803429 
L 216.021383 -77.907565 
L 223.756369 -79.011701 
L 230.812268 -80.115836 
L 237.090179 -81.219972 
L 242.521901 -82.324108 
L 247.078348 -83.428243 
L 250.768379 -84.532379 
L 253.629563 -85.636515 
L 255.71513 -86.74065 
L 257.082478 -87.844786 
L 257.787676 -88.948922 
L 257.887788 -90.053058 
L 257.449566 -91.157193 
L 256.560295 -92.261329 
L 255.335473 -93.365465 
L 253.918957 -94.4696 
L 252.473923 -95.573736 
L 251.166363 -96.677872 
L 250.145665 -97.782007 
L 249.527907 -98.886143 
L 249.386518 -99.990279 
L 249.752222 -101.094414 
L 250.620906 -102.19855 
L 251.965422 -103.302686 
L 253.746457 -104.406821 
L 255.918648 -105.510957 
L 258.430639 -106.615093 
L 261.220592 -107.719228 
L 264.210643 -108.823364 
L 267.304201 -109.9275 
L 270.388791 -111.031635 
L 273.344916 -112.135771 
L 276.059167 -113.239907 
L 278.438319 -114.344042 
L 280.420882 -115.448178 
L 281.983435 -116.552314 
L 283.140605 -117.656449 
L 283.939158 -118.760585 
L 284.447905 -119.864721 
L 284.745716 -120.968856 
L 284.909945 -122.072992 
L 285.007099 -123.177128 
L 285.086907 -124.281263 
L 285.180216 -125.385399 
L 285.300416 -126.489535 
L 285.44757 -127.59367 
L 285.614023 -128.697806 
L 285.790102 -129.801942 
L 285.968669 -130.906077 
L 286.147643 -132.010213 
L 286.330203 -133.114349 
L 286.523009 -134.218484 
L 286.733263 -135.32262 
L 286.965683 -136.426756 
L 287.220358 -137.530891 
L 287.492053 -138.635027 
L 287.77105 -139.739163 
L 288.04512 -140.843298 
L 288.301947 -141.947434 
L 288.53132 -143.05157 
L 288.726576 -144.155705 
L 288.885089 -145.259841 
L 289.007901 -146.363977 
L 289.542099 -146.363977 
L 289.542099 -146.363977 
L 289.664911 -145.259841 
L 289.823424 -144.155705 
L 290.01868 -143.05157 
L 290.248053 -141.947434 
L 290.50488 -140.843298 
L 290.77895 -139.739163 
L 291.057947 -138.635027 
L 291.329642 -137.530891 
L 291.584317 -136.426756 
L 291.816737 -135.32262 
L 292.026991 -134.218484 
L 292.219797 -133.114349 
L 292.402357 -132.010213 
L 292.581331 -130.906077 
L 292.759898 -129.801942 
L 292.935977 -128.697806 
L 293.10243 -127.59367 
L 293.249584 -126.489535 
L 293.369784 -125.385399 
L 293.463093 -124.281263 
L 293.542901 -123.177128 
L 293.640055 -122.072992 
L 293.804284 -120.968856 
L 294.102095 -119.864721 
L 294.610842 -118.760585 
L 295.409395 -117.656449 
L 296.566565 -116.552314 
L 298.129118 -115.448178 
L 300.111681 -114.344042 
L 302.490833 -113.239907 
L 305.205084 -112.135771 
L 308.161209 -111.031635 
L 311.245799 -109.9275 
L 314.339357 -108.823364 
L 317.329408 -107.719228 
L 320.119361 -106.615093 
L 322.631352 -105.510957 
L 324.803543 -104.406821 
L 326.584578 -103.302686 
L 327.929094 -102.19855 
L 328.797778 -101.094414 
L 329.163482 -99.990279 
L 329.022093 -98.886143 
L 328.404335 -97.782007 
L 327.383637 -96.677872 
L 326.076077 -95.573736 
L 324.631043 -94.4696 
L 323.214527 -93.365465 
L 321.989705 -92.261329 
L 321.100434 -91.157193 
L 320.662212 -90.053058 
L 320.762324 -88.948922 
L 321.467522 -87.844786 
L 322.83487 -86.74065 
L 324.920437 -85.636515 
L 327.781621 -84.532379 
L 331.471652 -83.428243 
L 336.028099 -82.324108 
L 341.459821 -81.219972 
L 347.737732 -80.115836 
L 354.793631 -79.011701 
L 362.528617 -77.907565 
L 370.829254 -76.803429 
L 379.586776 -75.699294 
L 388.713297 -74.595158 
L 398.149597 -73.491022 
L 407.861388 -72.386887 
L 417.824254 -71.282751 
L 428.000689 -70.178615 
L 438.314885 -69.07448 
L 448.631643 -67.970344 
L 458.744762 -66.866208 
L 468.378111 -65.762073 
L 477.199635 -64.657937 
L 484.845786 -63.553801 
L 490.951726 -62.449666 
L 495.181759 -61.34553 
L 497.255 -60.241394 
L 496.963087 -59.137259 
L 494.17946 -58.033123 
L 488.862273 -56.928987 
L 481.05463 -55.824852 
L 470.88565 -54.720716 
L 458.57388 -53.61658 
L 444.431518 -52.512445 
L 428.865004 -51.408309 
L 412.366354 -50.304173 
L 395.490807 -49.200038 
L 378.819942 -48.095902 
L 362.914091 -46.991766 
L 348.261898 -45.887631 
L 335.236766 -44.783495 
L 324.06878 -43.679359 
L 314.837138 -42.575224 
L 307.483154 -41.471088 
L 301.839423 -40.366952 
L 297.667848 -39.262817 
L 294.698642 -38.158681 
L 292.663828 -37.054545 
z
" id="m22184757e7" style="stroke:#4c4c4c;stroke-width:3;"/>
    </defs>
    <g clip-path="url(#pf0ac02b53e)">
     <use style="fill:#5875a4;stroke:#4c4c4c;stroke-width:3;" x="0" xlink:href="#m22184757e7" y="288"/>
    </g>
   </g>
   <g id="PolyCollection_2">
    <defs>
     <path d="M 810.4194 -42.383629 
L 808.0306 -42.383629 
L 806.175161 -44.401425 
L 802.149995 -46.419221 
L 794.305431 -48.437018 
L 780.615992 -50.454814 
L 759.325652 -52.47261 
L 730.015835 -54.490406 
L 694.668618 -56.508202 
L 657.997329 -58.525999 
L 626.491579 -60.543795 
L 606.347109 -62.561591 
L 601.245 -64.579387 
L 611.137559 -66.597184 
L 632.599042 -68.61498 
L 660.398438 -70.632776 
L 689.401387 -72.650572 
L 715.950461 -74.668368 
L 738.310517 -76.686165 
L 756.279833 -78.703961 
L 770.41601 -80.721757 
L 781.375526 -82.739553 
L 789.63646 -84.75735 
L 795.552524 -86.775146 
L 799.504544 -88.792942 
L 801.959899 -90.810738 
L 803.411964 -92.828534 
L 804.282342 -94.846331 
L 804.864206 -96.864127 
L 805.323174 -98.881923 
L 805.731061 -100.899719 
L 806.107078 -102.917515 
L 806.45426 -104.935312 
L 806.783518 -106.953108 
L 807.117066 -108.970904 
L 807.470669 -110.9887 
L 807.82963 -113.006497 
L 808.14035 -115.024293 
L 808.327415 -117.042089 
L 808.327229 -119.059885 
L 808.120749 -121.077681 
L 807.751841 -123.095478 
L 807.323749 -125.113274 
L 806.9708 -127.13107 
L 806.811175 -129.148866 
L 806.899307 -131.166663 
L 807.202152 -133.184459 
L 807.613133 -135.202255 
L 807.996834 -137.220051 
L 808.242254 -139.237847 
L 808.302179 -141.255644 
L 808.206132 -143.27344 
L 808.044181 -145.291236 
L 807.926539 -147.309032 
L 807.933981 -149.326828 
L 808.082893 -151.344625 
L 808.323912 -153.362421 
L 808.571842 -155.380217 
L 808.744682 -157.398013 
L 808.790115 -159.41581 
L 808.695163 -161.433606 
L 808.487531 -163.451402 
L 808.232612 -165.469198 
L 808.019138 -167.486994 
L 807.928238 -169.504791 
L 807.997428 -171.522587 
L 808.203456 -173.540383 
L 808.477974 -175.558179 
L 808.744998 -177.575976 
L 808.954 -179.593772 
L 809.090565 -181.611568 
L 809.166404 -183.629364 
L 809.202559 -185.64716 
L 809.217449 -187.664957 
L 809.222767 -189.682753 
L 809.22442 -191.700549 
L 809.224868 -193.718345 
L 809.224973 -195.736142 
L 809.224995 -197.753938 
L 809.224999 -199.771734 
L 809.224998 -201.78953 
L 809.224989 -203.807326 
L 809.224942 -205.825123 
L 809.224727 -207.842919 
L 809.223875 -209.860715 
L 809.220931 -211.878511 
L 809.212065 -213.896307 
L 809.188871 -215.914104 
L 809.136335 -217.9319 
L 809.03381 -219.949696 
L 808.862766 -221.967492 
L 808.621982 -223.985289 
L 808.342965 -226.003085 
L 808.091408 -228.020881 
L 807.944903 -230.038677 
L 807.954881 -232.056473 
L 808.117711 -234.07427 
L 808.37681 -236.092066 
L 808.654126 -238.109862 
L 808.8874 -240.127658 
L 809.049579 -242.145455 
L 809.400421 -242.145455 
L 809.400421 -242.145455 
L 809.5626 -240.127658 
L 809.795874 -238.109862 
L 810.07319 -236.092066 
L 810.332289 -234.07427 
L 810.495119 -232.056473 
L 810.505097 -230.038677 
L 810.358592 -228.020881 
L 810.107035 -226.003085 
L 809.828018 -223.985289 
L 809.587234 -221.967492 
L 809.41619 -219.949696 
L 809.313665 -217.9319 
L 809.261129 -215.914104 
L 809.237935 -213.896307 
L 809.229069 -211.878511 
L 809.226125 -209.860715 
L 809.225273 -207.842919 
L 809.225058 -205.825123 
L 809.225011 -203.807326 
L 809.225002 -201.78953 
L 809.225001 -199.771734 
L 809.225005 -197.753938 
L 809.225027 -195.736142 
L 809.225132 -193.718345 
L 809.22558 -191.700549 
L 809.227233 -189.682753 
L 809.232551 -187.664957 
L 809.247441 -185.64716 
L 809.283596 -183.629364 
L 809.359435 -181.611568 
L 809.496 -179.593772 
L 809.705002 -177.575976 
L 809.972026 -175.558179 
L 810.246544 -173.540383 
L 810.452572 -171.522587 
L 810.521762 -169.504791 
L 810.430862 -167.486994 
L 810.217388 -165.469198 
L 809.962469 -163.451402 
L 809.754837 -161.433606 
L 809.659885 -159.41581 
L 809.705318 -157.398013 
L 809.878158 -155.380217 
L 810.126088 -153.362421 
L 810.367107 -151.344625 
L 810.516019 -149.326828 
L 810.523461 -147.309032 
L 810.405819 -145.291236 
L 810.243868 -143.27344 
L 810.147821 -141.255644 
L 810.207746 -139.237847 
L 810.453166 -137.220051 
L 810.836867 -135.202255 
L 811.247848 -133.184459 
L 811.550693 -131.166663 
L 811.638825 -129.148866 
L 811.4792 -127.13107 
L 811.126251 -125.113274 
L 810.698159 -123.095478 
L 810.329251 -121.077681 
L 810.122771 -119.059885 
L 810.122585 -117.042089 
L 810.30965 -115.024293 
L 810.62037 -113.006497 
L 810.979331 -110.9887 
L 811.332934 -108.970904 
L 811.666482 -106.953108 
L 811.99574 -104.935312 
L 812.342922 -102.917515 
L 812.718939 -100.899719 
L 813.126826 -98.881923 
L 813.585794 -96.864127 
L 814.167658 -94.846331 
L 815.038036 -92.828534 
L 816.490101 -90.810738 
L 818.945456 -88.792942 
L 822.897476 -86.775146 
L 828.81354 -84.75735 
L 837.074474 -82.739553 
L 848.03399 -80.721757 
L 862.170167 -78.703961 
L 880.139483 -76.686165 
L 902.499539 -74.668368 
L 929.048613 -72.650572 
L 958.051562 -70.632776 
L 985.850958 -68.61498 
L 1007.312441 -66.597184 
L 1017.205 -64.579387 
L 1012.102891 -62.561591 
L 991.958421 -60.543795 
L 960.452671 -58.525999 
L 923.781382 -56.508202 
L 888.434165 -54.490406 
L 859.124348 -52.47261 
L 837.834008 -50.454814 
L 824.144569 -48.437018 
L 816.300005 -46.419221 
L 812.274839 -44.401425 
L 810.4194 -42.383629 
z
" id="mdd19051d24" style="stroke:#4c4c4c;stroke-width:3;"/>
    </defs>
    <g clip-path="url(#pf0ac02b53e)">
     <use style="fill:#5f9e6e;stroke:#4c4c4c;stroke-width:3;" x="0" xlink:href="#mdd19051d24" y="288"/>
    </g>
   </g>
   <g id="line2d_8">
    <path clip-path="url(#pf0ac02b53e)" d="M 289.275 239.725522 
L 289.275 188.242363 
" style="fill:none;stroke:#4c4c4c;stroke-linecap:round;stroke-width:3;"/>
   </g>
   <g id="line2d_9">
    <path clip-path="url(#pf0ac02b53e)" d="M 289.275 230.553017 
L 289.275 213.568298 
" style="fill:none;stroke:#4c4c4c;stroke-linecap:round;stroke-width:9;"/>
   </g>
   <g id="line2d_10">
    <path clip-path="url(#pf0ac02b53e)" d="M 809.225 234.396438 
L 809.225 207.555144 
" style="fill:none;stroke:#4c4c4c;stroke-linecap:round;stroke-width:3;"/>
   </g>
   <g id="line2d_11">
    <path clip-path="url(#pf0ac02b53e)" d="M 809.225 226.401554 
L 809.225 218.777662 
" style="fill:none;stroke:#4c4c4c;stroke-linecap:round;stroke-width:9;"/>
   </g>
   <g id="patch_3">
    <path d="M 29.3 261.2 
L 29.3 35.6 
" style="fill:none;"/>
   </g>
   <g id="patch_4">
    <path d="M 1069.2 261.2 
L 1069.2 35.6 
" style="fill:none;"/>
   </g>
   <g id="patch_5">
    <path d="M 29.3 261.2 
L 1069.2 261.2 
" style="fill:none;"/>
   </g>
   <g id="patch_6">
    <path d="M 29.3 35.6 
L 1069.2 35.6 
" style="fill:none;"/>
   </g>
   <g id="PathCollection_1">
    <defs>
     <path d="M 0 3 
C 0.795609 3 1.55874 2.683901 2.12132 2.12132 
C 2.683901 1.55874 3 0.795609 3 0 
C 3 -0.795609 2.683901 -1.55874 2.12132 -2.12132 
C 1.55874 -2.683901 0.795609 -3 0 -3 
C -0.795609 -3 -1.55874 -2.683901 -2.12132 -2.12132 
C -2.683901 -1.55874 -3 -0.795609 -3 0 
C -3 0.795609 -2.683901 1.55874 -2.12132 2.12132 
C -1.55874 2.683901 -0.795609 3 0 3 
z
" id="m56390eebe2" style="stroke:#4c4c4c;stroke-width:0.3;"/>
    </defs>
    <g clip-path="url(#pf0ac02b53e)">
     <use style="fill:#ffffff;stroke:#4c4c4c;stroke-width:0.3;" x="289.275" xlink:href="#m56390eebe2" y="224.790682"/>
    </g>
   </g>
   <g id="PathCollection_2">
    <g clip-path="url(#pf0ac02b53e)">
     <use style="fill:#ffffff;stroke:#4c4c4c;stroke-width:0.3;" x="809.225" xlink:href="#m56390eebe2" y="222.938959"/>
    </g>
   </g>
  </g>
  <g id="text_10">
   <!-- Violin Plot of all Continuous Variables -->
   <g style="fill:#262626;" transform="translate(416.035547 16.496719)scale(0.15 -0.15)">
    <defs>
     <path d="M 1803 0 
L 28 4581 
L 684 4581 
L 1875 1253 
Q 2019 853 2116 503 
Q 2222 878 2363 1253 
L 3600 4581 
L 4219 4581 
L 2425 0 
L 1803 0 
z
" id="ArialMT-56" transform="scale(0.015625)"/>
     <path d="M 213 1659 
Q 213 2581 725 3025 
Q 1153 3394 1769 3394 
Q 2453 3394 2887 2945 
Q 3322 2497 3322 1706 
Q 3322 1066 3130 698 
Q 2938 331 2570 128 
Q 2203 -75 1769 -75 
Q 1072 -75 642 372 
Q 213 819 213 1659 
z
M 791 1659 
Q 791 1022 1069 705 
Q 1347 388 1769 388 
Q 2188 388 2466 706 
Q 2744 1025 2744 1678 
Q 2744 2294 2464 2611 
Q 2184 2928 1769 2928 
Q 1347 2928 1069 2612 
Q 791 2297 791 1659 
z
" id="ArialMT-6f" transform="scale(0.015625)"/>
     <path d="M 494 0 
L 494 4581 
L 2222 4581 
Q 2678 4581 2919 4538 
Q 3256 4481 3484 4323 
Q 3713 4166 3852 3881 
Q 3991 3597 3991 3256 
Q 3991 2672 3619 2267 
Q 3247 1863 2275 1863 
L 1100 1863 
L 1100 0 
L 494 0 
z
M 1100 2403 
L 2284 2403 
Q 2872 2403 3119 2622 
Q 3366 2841 3366 3238 
Q 3366 3525 3220 3729 
Q 3075 3934 2838 4000 
Q 2684 4041 2272 4041 
L 1100 4041 
L 1100 2403 
z
" id="ArialMT-50" transform="scale(0.015625)"/>
     <path d="M 556 0 
L 556 2881 
L 59 2881 
L 59 3319 
L 556 3319 
L 556 3672 
Q 556 4006 616 4169 
Q 697 4388 901 4523 
Q 1106 4659 1475 4659 
Q 1713 4659 2000 4603 
L 1916 4113 
Q 1741 4144 1584 4144 
Q 1328 4144 1222 4034 
Q 1116 3925 1116 3625 
L 1116 3319 
L 1763 3319 
L 1763 2881 
L 1116 2881 
L 1116 0 
L 556 0 
z
" id="ArialMT-66" transform="scale(0.015625)"/>
     <path d="M 2597 0 
L 2597 488 
Q 2209 -75 1544 -75 
Q 1250 -75 995 37 
Q 741 150 617 320 
Q 494 491 444 738 
Q 409 903 409 1263 
L 409 3319 
L 972 3319 
L 972 1478 
Q 972 1038 1006 884 
Q 1059 663 1231 536 
Q 1403 409 1656 409 
Q 1909 409 2131 539 
Q 2353 669 2445 892 
Q 2538 1116 2538 1541 
L 2538 3319 
L 3100 3319 
L 3100 0 
L 2597 0 
z
" id="ArialMT-75" transform="scale(0.015625)"/>
     <path d="M 197 991 
L 753 1078 
Q 800 744 1014 566 
Q 1228 388 1613 388 
Q 2000 388 2187 545 
Q 2375 703 2375 916 
Q 2375 1106 2209 1216 
Q 2094 1291 1634 1406 
Q 1016 1563 777 1677 
Q 538 1791 414 1992 
Q 291 2194 291 2438 
Q 291 2659 392 2848 
Q 494 3038 669 3163 
Q 800 3259 1026 3326 
Q 1253 3394 1513 3394 
Q 1903 3394 2198 3281 
Q 2494 3169 2634 2976 
Q 2775 2784 2828 2463 
L 2278 2388 
Q 2241 2644 2061 2787 
Q 1881 2931 1553 2931 
Q 1166 2931 1000 2803 
Q 834 2675 834 2503 
Q 834 2394 903 2306 
Q 972 2216 1119 2156 
Q 1203 2125 1616 2013 
Q 2213 1853 2448 1751 
Q 2684 1650 2818 1456 
Q 2953 1263 2953 975 
Q 2953 694 2789 445 
Q 2625 197 2315 61 
Q 2006 -75 1616 -75 
Q 969 -75 630 194 
Q 291 463 197 991 
z
" id="ArialMT-73" transform="scale(0.015625)"/>
     <path d="M 416 0 
L 416 3319 
L 922 3319 
L 922 2816 
Q 1116 3169 1280 3281 
Q 1444 3394 1641 3394 
Q 1925 3394 2219 3213 
L 2025 2691 
Q 1819 2813 1613 2813 
Q 1428 2813 1281 2702 
Q 1134 2591 1072 2394 
Q 978 2094 978 1738 
L 978 0 
L 416 0 
z
" id="ArialMT-72" transform="scale(0.015625)"/>
     <path d="M 941 0 
L 419 0 
L 419 4581 
L 981 4581 
L 981 2947 
Q 1338 3394 1891 3394 
Q 2197 3394 2470 3270 
Q 2744 3147 2920 2923 
Q 3097 2700 3197 2384 
Q 3297 2069 3297 1709 
Q 3297 856 2875 390 
Q 2453 -75 1863 -75 
Q 1275 -75 941 416 
L 941 0 
z
M 934 1684 
Q 934 1088 1097 822 
Q 1363 388 1816 388 
Q 2184 388 2453 708 
Q 2722 1028 2722 1663 
Q 2722 2313 2464 2622 
Q 2206 2931 1841 2931 
Q 1472 2931 1203 2611 
Q 934 2291 934 1684 
z
" id="ArialMT-62" transform="scale(0.015625)"/>
    </defs>
    <use xlink:href="#ArialMT-56"/>
    <use x="64.949219" xlink:href="#ArialMT-69"/>
    <use x="87.166016" xlink:href="#ArialMT-6f"/>
    <use x="142.78125" xlink:href="#ArialMT-6c"/>
    <use x="164.998047" xlink:href="#ArialMT-69"/>
    <use x="187.214844" xlink:href="#ArialMT-6e"/>
    <use x="242.830078" xlink:href="#ArialMT-20"/>
    <use x="270.613281" xlink:href="#ArialMT-50"/>
    <use x="337.3125" xlink:href="#ArialMT-6c"/>
    <use x="359.529297" xlink:href="#ArialMT-6f"/>
    <use x="415.144531" xlink:href="#ArialMT-74"/>
    <use x="442.927734" xlink:href="#ArialMT-20"/>
    <use x="470.710938" xlink:href="#ArialMT-6f"/>
    <use x="526.326172" xlink:href="#ArialMT-66"/>
    <use x="554.109375" xlink:href="#ArialMT-20"/>
    <use x="581.892578" xlink:href="#ArialMT-61"/>
    <use x="637.507812" xlink:href="#ArialMT-6c"/>
    <use x="659.724609" xlink:href="#ArialMT-6c"/>
    <use x="681.941406" xlink:href="#ArialMT-20"/>
    <use x="709.724609" xlink:href="#ArialMT-43"/>
    <use x="781.941406" xlink:href="#ArialMT-6f"/>
    <use x="837.556641" xlink:href="#ArialMT-6e"/>
    <use x="893.171875" xlink:href="#ArialMT-74"/>
    <use x="920.955078" xlink:href="#ArialMT-69"/>
    <use x="943.171875" xlink:href="#ArialMT-6e"/>
    <use x="998.787109" xlink:href="#ArialMT-75"/>
    <use x="1054.402344" xlink:href="#ArialMT-6f"/>
    <use x="1110.017578" xlink:href="#ArialMT-75"/>
    <use x="1165.632812" xlink:href="#ArialMT-73"/>
    <use x="1215.632812" xlink:href="#ArialMT-20"/>
    <use x="1243.416016" xlink:href="#ArialMT-56"/>
    <use x="1302.740234" xlink:href="#ArialMT-61"/>
    <use x="1358.355469" xlink:href="#ArialMT-72"/>
    <use x="1391.65625" xlink:href="#ArialMT-69"/>
    <use x="1413.873047" xlink:href="#ArialMT-61"/>
    <use x="1469.488281" xlink:href="#ArialMT-62"/>
    <use x="1525.103516" xlink:href="#ArialMT-6c"/>
    <use x="1547.320312" xlink:href="#ArialMT-65"/>
    <use x="1602.935547" xlink:href="#ArialMT-73"/>
   </g>
  </g>
 </g>
 <defs>
  <clipPath id="pf0ac02b53e">
   <rect height="225.6" width="1039.9" x="29.3" y="35.6"/>
  </clipPath>
 </defs>
</svg>
