<?xml version="1.0" encoding="utf-8" standalone="no"?>
<!DOCTYPE svg PUBLIC "-//W3C//DTD SVG 1.1//EN"
  "http://www.w3.org/Graphics/SVG/1.1/DTD/svg11.dtd">
<svg height="288pt" version="1.1" viewBox="0 0 1080 288" width="1080pt" xmlns="http://www.w3.org/2000/svg" xmlns:xlink="http://www.w3.org/1999/xlink">
 <metadata>
  <rdf:RDF xmlns:cc="http://creativecommons.org/ns#" xmlns:dc="http://purl.org/dc/elements/1.1/" xmlns:rdf="http://www.w3.org/1999/02/22-rdf-syntax-ns#">
   <cc:Work>
    <dc:type rdf:resource="http://purl.org/dc/dcmitype/StillImage"/>
    <dc:date>2021-10-27T20:56:33.959395</dc:date>
    <dc:format>image/svg+xml</dc:format>
    <dc:creator>
     <cc:Agent>
      <dc:title>Matplotlib v3.4.3, https://matplotlib.org/</dc:title>
     </cc:Agent>
    </dc:creator>
   </cc:Work>
  </rdf:RDF>
 </metadata>
 <defs>
  <style type="text/css">*{stroke-linecap:butt;stroke-linejoin:round;}</style>
 </defs>
 <g id="figure_1">
  <g id="patch_1">
   <path d="M 0 288 
L 1080 288 
L 1080 0 
L 0 0 
z
" style="fill:#ffffff;"/>
  </g>
  <g id="axes_1">
   <g id="patch_2">
    <path d="M 31.39 259.1075 
L 1067.04 259.1075 
L 1067.04 39.6 
L 31.39 39.6 
z
" style="fill:#eaeaf2;"/>
   </g>
   <g id="matplotlib.axis_1">
    <g id="xtick_1">
     <g id="text_1">
      <!-- Click Rate -->
      <g style="fill:#262626;" transform="translate(267.519687 273.265312)scale(0.1 -0.1)">
       <defs>
        <path d="M 3763 1606 
L 4369 1453 
Q 4178 706 3683 314 
Q 3188 -78 2472 -78 
Q 1731 -78 1267 223 
Q 803 525 561 1097 
Q 319 1669 319 2325 
Q 319 3041 592 3573 
Q 866 4106 1370 4382 
Q 1875 4659 2481 4659 
Q 3169 4659 3637 4309 
Q 4106 3959 4291 3325 
L 3694 3184 
Q 3534 3684 3231 3912 
Q 2928 4141 2469 4141 
Q 1941 4141 1586 3887 
Q 1231 3634 1087 3207 
Q 944 2781 944 2328 
Q 944 1744 1114 1308 
Q 1284 872 1643 656 
Q 2003 441 2422 441 
Q 2931 441 3284 734 
Q 3638 1028 3763 1606 
z
" id="ArialMT-43" transform="scale(0.015625)"/>
        <path d="M 409 0 
L 409 4581 
L 972 4581 
L 972 0 
L 409 0 
z
" id="ArialMT-6c" transform="scale(0.015625)"/>
        <path d="M 425 3934 
L 425 4581 
L 988 4581 
L 988 3934 
L 425 3934 
z
M 425 0 
L 425 3319 
L 988 3319 
L 988 0 
L 425 0 
z
" id="ArialMT-69" transform="scale(0.015625)"/>
        <path d="M 2588 1216 
L 3141 1144 
Q 3050 572 2676 248 
Q 2303 -75 1759 -75 
Q 1078 -75 664 370 
Q 250 816 250 1647 
Q 250 2184 428 2587 
Q 606 2991 970 3192 
Q 1334 3394 1763 3394 
Q 2303 3394 2647 3120 
Q 2991 2847 3088 2344 
L 2541 2259 
Q 2463 2594 2264 2762 
Q 2066 2931 1784 2931 
Q 1359 2931 1093 2626 
Q 828 2322 828 1663 
Q 828 994 1084 691 
Q 1341 388 1753 388 
Q 2084 388 2306 591 
Q 2528 794 2588 1216 
z
" id="ArialMT-63" transform="scale(0.015625)"/>
        <path d="M 425 0 
L 425 4581 
L 988 4581 
L 988 1969 
L 2319 3319 
L 3047 3319 
L 1778 2088 
L 3175 0 
L 2481 0 
L 1384 1697 
L 988 1316 
L 988 0 
L 425 0 
z
" id="ArialMT-6b" transform="scale(0.015625)"/>
        <path id="ArialMT-20" transform="scale(0.015625)"/>
        <path d="M 503 0 
L 503 4581 
L 2534 4581 
Q 3147 4581 3465 4457 
Q 3784 4334 3975 4021 
Q 4166 3709 4166 3331 
Q 4166 2844 3850 2509 
Q 3534 2175 2875 2084 
Q 3116 1969 3241 1856 
Q 3506 1613 3744 1247 
L 4541 0 
L 3778 0 
L 3172 953 
Q 2906 1366 2734 1584 
Q 2563 1803 2427 1890 
Q 2291 1978 2150 2013 
Q 2047 2034 1813 2034 
L 1109 2034 
L 1109 0 
L 503 0 
z
M 1109 2559 
L 2413 2559 
Q 2828 2559 3062 2645 
Q 3297 2731 3419 2920 
Q 3541 3109 3541 3331 
Q 3541 3656 3305 3865 
Q 3069 4075 2559 4075 
L 1109 4075 
L 1109 2559 
z
" id="ArialMT-52" transform="scale(0.015625)"/>
        <path d="M 2588 409 
Q 2275 144 1986 34 
Q 1697 -75 1366 -75 
Q 819 -75 525 192 
Q 231 459 231 875 
Q 231 1119 342 1320 
Q 453 1522 633 1644 
Q 813 1766 1038 1828 
Q 1203 1872 1538 1913 
Q 2219 1994 2541 2106 
Q 2544 2222 2544 2253 
Q 2544 2597 2384 2738 
Q 2169 2928 1744 2928 
Q 1347 2928 1158 2789 
Q 969 2650 878 2297 
L 328 2372 
Q 403 2725 575 2942 
Q 747 3159 1072 3276 
Q 1397 3394 1825 3394 
Q 2250 3394 2515 3294 
Q 2781 3194 2906 3042 
Q 3031 2891 3081 2659 
Q 3109 2516 3109 2141 
L 3109 1391 
Q 3109 606 3145 398 
Q 3181 191 3288 0 
L 2700 0 
Q 2613 175 2588 409 
z
M 2541 1666 
Q 2234 1541 1622 1453 
Q 1275 1403 1131 1340 
Q 988 1278 909 1158 
Q 831 1038 831 891 
Q 831 666 1001 516 
Q 1172 366 1500 366 
Q 1825 366 2078 508 
Q 2331 650 2450 897 
Q 2541 1088 2541 1459 
L 2541 1666 
z
" id="ArialMT-61" transform="scale(0.015625)"/>
        <path d="M 1650 503 
L 1731 6 
Q 1494 -44 1306 -44 
Q 1000 -44 831 53 
Q 663 150 594 308 
Q 525 466 525 972 
L 525 2881 
L 113 2881 
L 113 3319 
L 525 3319 
L 525 4141 
L 1084 4478 
L 1084 3319 
L 1650 3319 
L 1650 2881 
L 1084 2881 
L 1084 941 
Q 1084 700 1114 631 
Q 1144 563 1211 522 
Q 1278 481 1403 481 
Q 1497 481 1650 503 
z
" id="ArialMT-74" transform="scale(0.015625)"/>
        <path d="M 2694 1069 
L 3275 997 
Q 3138 488 2766 206 
Q 2394 -75 1816 -75 
Q 1088 -75 661 373 
Q 234 822 234 1631 
Q 234 2469 665 2931 
Q 1097 3394 1784 3394 
Q 2450 3394 2872 2941 
Q 3294 2488 3294 1666 
Q 3294 1616 3291 1516 
L 816 1516 
Q 847 969 1125 678 
Q 1403 388 1819 388 
Q 2128 388 2347 550 
Q 2566 713 2694 1069 
z
M 847 1978 
L 2700 1978 
Q 2663 2397 2488 2606 
Q 2219 2931 1791 2931 
Q 1403 2931 1139 2672 
Q 875 2413 847 1978 
z
" id="ArialMT-65" transform="scale(0.015625)"/>
       </defs>
       <use xlink:href="#ArialMT-43"/>
       <use x="72.216797" xlink:href="#ArialMT-6c"/>
       <use x="94.433594" xlink:href="#ArialMT-69"/>
       <use x="116.650391" xlink:href="#ArialMT-63"/>
       <use x="166.650391" xlink:href="#ArialMT-6b"/>
       <use x="216.650391" xlink:href="#ArialMT-20"/>
       <use x="244.433594" xlink:href="#ArialMT-52"/>
       <use x="316.650391" xlink:href="#ArialMT-61"/>
       <use x="372.265625" xlink:href="#ArialMT-74"/>
       <use x="400.048828" xlink:href="#ArialMT-65"/>
      </g>
     </g>
    </g>
    <g id="xtick_2">
     <g id="text_2">
      <!-- Open Rate -->
      <g style="fill:#262626;" transform="translate(783.947031 273.393438)scale(0.1 -0.1)">
       <defs>
        <path d="M 309 2231 
Q 309 3372 921 4017 
Q 1534 4663 2503 4663 
Q 3138 4663 3647 4359 
Q 4156 4056 4423 3514 
Q 4691 2972 4691 2284 
Q 4691 1588 4409 1038 
Q 4128 488 3612 205 
Q 3097 -78 2500 -78 
Q 1853 -78 1343 234 
Q 834 547 571 1087 
Q 309 1628 309 2231 
z
M 934 2222 
Q 934 1394 1379 917 
Q 1825 441 2497 441 
Q 3181 441 3623 922 
Q 4066 1403 4066 2288 
Q 4066 2847 3877 3264 
Q 3688 3681 3323 3911 
Q 2959 4141 2506 4141 
Q 1863 4141 1398 3698 
Q 934 3256 934 2222 
z
" id="ArialMT-4f" transform="scale(0.015625)"/>
        <path d="M 422 -1272 
L 422 3319 
L 934 3319 
L 934 2888 
Q 1116 3141 1344 3267 
Q 1572 3394 1897 3394 
Q 2322 3394 2647 3175 
Q 2972 2956 3137 2557 
Q 3303 2159 3303 1684 
Q 3303 1175 3120 767 
Q 2938 359 2589 142 
Q 2241 -75 1856 -75 
Q 1575 -75 1351 44 
Q 1128 163 984 344 
L 984 -1272 
L 422 -1272 
z
M 931 1641 
Q 931 1000 1190 694 
Q 1450 388 1819 388 
Q 2194 388 2461 705 
Q 2728 1022 2728 1688 
Q 2728 2322 2467 2637 
Q 2206 2953 1844 2953 
Q 1484 2953 1207 2617 
Q 931 2281 931 1641 
z
" id="ArialMT-70" transform="scale(0.015625)"/>
        <path d="M 422 0 
L 422 3319 
L 928 3319 
L 928 2847 
Q 1294 3394 1984 3394 
Q 2284 3394 2536 3286 
Q 2788 3178 2913 3003 
Q 3038 2828 3088 2588 
Q 3119 2431 3119 2041 
L 3119 0 
L 2556 0 
L 2556 2019 
Q 2556 2363 2490 2533 
Q 2425 2703 2258 2804 
Q 2091 2906 1866 2906 
Q 1506 2906 1245 2678 
Q 984 2450 984 1813 
L 984 0 
L 422 0 
z
" id="ArialMT-6e" transform="scale(0.015625)"/>
       </defs>
       <use xlink:href="#ArialMT-4f"/>
       <use x="77.783203" xlink:href="#ArialMT-70"/>
       <use x="133.398438" xlink:href="#ArialMT-65"/>
       <use x="189.013672" xlink:href="#ArialMT-6e"/>
       <use x="244.628906" xlink:href="#ArialMT-20"/>
       <use x="272.412109" xlink:href="#ArialMT-52"/>
       <use x="344.628906" xlink:href="#ArialMT-61"/>
       <use x="400.244141" xlink:href="#ArialMT-74"/>
       <use x="428.027344" xlink:href="#ArialMT-65"/>
      </g>
     </g>
    </g>
   </g>
   <g id="matplotlib.axis_2">
    <g id="ytick_1">
     <g id="line2d_1">
      <path clip-path="url(#pba071df824)" d="M 31.39 250.986245 
L 1067.04 250.986245 
" style="fill:none;stroke:#ffffff;stroke-linecap:round;"/>
     </g>
     <g id="text_3">
      <!-- −2 -->
      <g style="fill:#262626;" transform="translate(12.988438 254.565151)scale(0.1 -0.1)">
       <defs>
        <path d="M 3381 1997 
L 356 1997 
L 356 2522 
L 3381 2522 
L 3381 1997 
z
" id="ArialMT-2212" transform="scale(0.015625)"/>
        <path d="M 3222 541 
L 3222 0 
L 194 0 
Q 188 203 259 391 
Q 375 700 629 1000 
Q 884 1300 1366 1694 
Q 2113 2306 2375 2664 
Q 2638 3022 2638 3341 
Q 2638 3675 2398 3904 
Q 2159 4134 1775 4134 
Q 1369 4134 1125 3890 
Q 881 3647 878 3216 
L 300 3275 
Q 359 3922 746 4261 
Q 1134 4600 1788 4600 
Q 2447 4600 2831 4234 
Q 3216 3869 3216 3328 
Q 3216 3053 3103 2787 
Q 2991 2522 2730 2228 
Q 2469 1934 1863 1422 
Q 1356 997 1212 845 
Q 1069 694 975 541 
L 3222 541 
z
" id="ArialMT-32" transform="scale(0.015625)"/>
       </defs>
       <use xlink:href="#ArialMT-2212"/>
       <use x="58.398438" xlink:href="#ArialMT-32"/>
      </g>
     </g>
    </g>
    <g id="ytick_2">
     <g id="line2d_2">
      <path clip-path="url(#pba071df824)" d="M 31.39 218.509558 
L 1067.04 218.509558 
" style="fill:none;stroke:#ffffff;stroke-linecap:round;"/>
     </g>
     <g id="text_4">
      <!-- 0 -->
      <g style="fill:#262626;" transform="translate(18.829063 222.088464)scale(0.1 -0.1)">
       <defs>
        <path d="M 266 2259 
Q 266 3072 433 3567 
Q 600 4063 929 4331 
Q 1259 4600 1759 4600 
Q 2128 4600 2406 4451 
Q 2684 4303 2865 4023 
Q 3047 3744 3150 3342 
Q 3253 2941 3253 2259 
Q 3253 1453 3087 958 
Q 2922 463 2592 192 
Q 2263 -78 1759 -78 
Q 1097 -78 719 397 
Q 266 969 266 2259 
z
M 844 2259 
Q 844 1131 1108 757 
Q 1372 384 1759 384 
Q 2147 384 2411 759 
Q 2675 1134 2675 2259 
Q 2675 3391 2411 3762 
Q 2147 4134 1753 4134 
Q 1366 4134 1134 3806 
Q 844 3388 844 2259 
z
" id="ArialMT-30" transform="scale(0.015625)"/>
       </defs>
       <use xlink:href="#ArialMT-30"/>
      </g>
     </g>
    </g>
    <g id="ytick_3">
     <g id="line2d_3">
      <path clip-path="url(#pba071df824)" d="M 31.39 186.032871 
L 1067.04 186.032871 
" style="fill:none;stroke:#ffffff;stroke-linecap:round;"/>
     </g>
     <g id="text_5">
      <!-- 2 -->
      <g style="fill:#262626;" transform="translate(18.829063 189.611777)scale(0.1 -0.1)">
       <use xlink:href="#ArialMT-32"/>
      </g>
     </g>
    </g>
    <g id="ytick_4">
     <g id="line2d_4">
      <path clip-path="url(#pba071df824)" d="M 31.39 153.556184 
L 1067.04 153.556184 
" style="fill:none;stroke:#ffffff;stroke-linecap:round;"/>
     </g>
     <g id="text_6">
      <!-- 4 -->
      <g style="fill:#262626;" transform="translate(18.829063 157.135091)scale(0.1 -0.1)">
       <defs>
        <path d="M 2069 0 
L 2069 1097 
L 81 1097 
L 81 1613 
L 2172 4581 
L 2631 4581 
L 2631 1613 
L 3250 1613 
L 3250 1097 
L 2631 1097 
L 2631 0 
L 2069 0 
z
M 2069 1613 
L 2069 3678 
L 634 1613 
L 2069 1613 
z
" id="ArialMT-34" transform="scale(0.015625)"/>
       </defs>
       <use xlink:href="#ArialMT-34"/>
      </g>
     </g>
    </g>
    <g id="ytick_5">
     <g id="line2d_5">
      <path clip-path="url(#pba071df824)" d="M 31.39 121.079497 
L 1067.04 121.079497 
" style="fill:none;stroke:#ffffff;stroke-linecap:round;"/>
     </g>
     <g id="text_7">
      <!-- 6 -->
      <g style="fill:#262626;" transform="translate(18.829063 124.658404)scale(0.1 -0.1)">
       <defs>
        <path d="M 3184 3459 
L 2625 3416 
Q 2550 3747 2413 3897 
Q 2184 4138 1850 4138 
Q 1581 4138 1378 3988 
Q 1113 3794 959 3422 
Q 806 3050 800 2363 
Q 1003 2672 1297 2822 
Q 1591 2972 1913 2972 
Q 2475 2972 2870 2558 
Q 3266 2144 3266 1488 
Q 3266 1056 3080 686 
Q 2894 316 2569 119 
Q 2244 -78 1831 -78 
Q 1128 -78 684 439 
Q 241 956 241 2144 
Q 241 3472 731 4075 
Q 1159 4600 1884 4600 
Q 2425 4600 2770 4297 
Q 3116 3994 3184 3459 
z
M 888 1484 
Q 888 1194 1011 928 
Q 1134 663 1356 523 
Q 1578 384 1822 384 
Q 2178 384 2434 671 
Q 2691 959 2691 1453 
Q 2691 1928 2437 2201 
Q 2184 2475 1800 2475 
Q 1419 2475 1153 2201 
Q 888 1928 888 1484 
z
" id="ArialMT-36" transform="scale(0.015625)"/>
       </defs>
       <use xlink:href="#ArialMT-36"/>
      </g>
     </g>
    </g>
    <g id="ytick_6">
     <g id="line2d_6">
      <path clip-path="url(#pba071df824)" d="M 31.39 88.602811 
L 1067.04 88.602811 
" style="fill:none;stroke:#ffffff;stroke-linecap:round;"/>
     </g>
     <g id="text_8">
      <!-- 8 -->
      <g style="fill:#262626;" transform="translate(18.829063 92.181717)scale(0.1 -0.1)">
       <defs>
        <path d="M 1131 2484 
Q 781 2613 612 2850 
Q 444 3088 444 3419 
Q 444 3919 803 4259 
Q 1163 4600 1759 4600 
Q 2359 4600 2725 4251 
Q 3091 3903 3091 3403 
Q 3091 3084 2923 2848 
Q 2756 2613 2416 2484 
Q 2838 2347 3058 2040 
Q 3278 1734 3278 1309 
Q 3278 722 2862 322 
Q 2447 -78 1769 -78 
Q 1091 -78 675 323 
Q 259 725 259 1325 
Q 259 1772 486 2073 
Q 713 2375 1131 2484 
z
M 1019 3438 
Q 1019 3113 1228 2906 
Q 1438 2700 1772 2700 
Q 2097 2700 2305 2904 
Q 2513 3109 2513 3406 
Q 2513 3716 2298 3927 
Q 2084 4138 1766 4138 
Q 1444 4138 1231 3931 
Q 1019 3725 1019 3438 
z
M 838 1322 
Q 838 1081 952 856 
Q 1066 631 1291 507 
Q 1516 384 1775 384 
Q 2178 384 2440 643 
Q 2703 903 2703 1303 
Q 2703 1709 2433 1975 
Q 2163 2241 1756 2241 
Q 1359 2241 1098 1978 
Q 838 1716 838 1322 
z
" id="ArialMT-38" transform="scale(0.015625)"/>
       </defs>
       <use xlink:href="#ArialMT-38"/>
      </g>
     </g>
    </g>
    <g id="ytick_7">
     <g id="line2d_7">
      <path clip-path="url(#pba071df824)" d="M 31.39 56.126124 
L 1067.04 56.126124 
" style="fill:none;stroke:#ffffff;stroke-linecap:round;"/>
     </g>
     <g id="text_9">
      <!-- 10 -->
      <g style="fill:#262626;" transform="translate(13.268125 59.70503)scale(0.1 -0.1)">
       <defs>
        <path d="M 2384 0 
L 1822 0 
L 1822 3584 
Q 1619 3391 1289 3197 
Q 959 3003 697 2906 
L 697 3450 
Q 1169 3672 1522 3987 
Q 1875 4303 2022 4600 
L 2384 4600 
L 2384 0 
z
" id="ArialMT-31" transform="scale(0.015625)"/>
       </defs>
       <use xlink:href="#ArialMT-31"/>
       <use x="55.615234" xlink:href="#ArialMT-30"/>
      </g>
     </g>
    </g>
   </g>
   <g id="PolyCollection_1">
    <defs>
     <path d="M 293.677478 -38.870114 
L 286.927522 -38.870114 
L 284.901024 -39.944431 
L 281.943953 -41.018749 
L 277.789427 -42.093067 
L 272.168762 -43.167384 
L 264.844833 -44.241702 
L 255.65092 -45.316019 
L 244.528577 -46.390337 
L 231.556677 -47.464655 
L 216.964367 -48.538972 
L 201.123522 -49.61329 
L 184.52079 -50.687608 
L 167.714212 -51.761925 
L 151.282991 -52.836243 
L 135.780096 -53.910561 
L 121.695533 -54.984878 
L 109.434081 -56.059196 
L 99.30666 -57.133514 
L 91.530927 -58.207831 
L 86.23547 -59.282149 
L 83.46322 -60.356466 
L 83.1725 -61.430784 
L 85.237267 -62.505102 
L 89.450013 -63.579419 
L 95.530998 -64.653737 
L 103.145901 -65.728055 
L 111.931372 -66.802372 
L 121.525349 -67.87669 
L 131.597137 -68.951008 
L 141.87173 -70.025325 
L 152.143774 -71.099643 
L 162.278618 -72.173961 
L 172.200767 -73.248278 
L 181.872866 -74.322596 
L 191.2706 -75.396913 
L 200.359822 -76.471231 
L 209.081552 -77.545549 
L 217.348265 -78.619866 
L 225.051639 -79.694184 
L 232.078701 -80.768502 
L 238.330955 -81.842819 
L 243.740478 -82.917137 
L 248.278303 -83.991455 
L 251.953253 -85.065772 
L 254.802744 -86.14009 
L 256.879787 -87.214408 
L 258.241546 -88.288725 
L 258.943862 -89.363043 
L 259.043565 -90.43736 
L 258.607134 -91.511678 
L 257.721498 -92.585996 
L 256.501681 -93.660313 
L 255.090955 -94.734631 
L 253.651826 -95.808949 
L 252.349611 -96.883266 
L 251.333083 -97.957584 
L 250.71785 -99.031902 
L 250.577039 -100.106219 
L 250.941249 -101.180537 
L 251.806383 -102.254855 
L 253.145404 -103.329172 
L 254.91916 -104.40349 
L 257.082473 -105.477807 
L 259.584198 -106.552125 
L 262.362749 -107.626443 
L 265.340579 -108.70076 
L 268.421494 -109.775078 
L 271.493478 -110.849396 
L 274.437522 -111.923713 
L 277.14068 -112.998031 
L 279.510108 -114.072349 
L 281.484568 -115.146666 
L 283.040735 -116.220984 
L 284.193176 -117.295302 
L 284.988466 -118.369619 
L 285.495133 -119.443937 
L 285.791727 -120.518254 
L 285.955285 -121.592572 
L 286.052041 -122.66689 
L 286.131524 -123.741207 
L 286.224451 -124.815525 
L 286.344159 -125.889843 
L 286.490712 -126.96416 
L 286.656485 -128.038478 
L 286.831845 -129.112796 
L 287.009682 -130.187113 
L 287.187924 -131.261431 
L 287.369738 -132.335749 
L 287.561756 -133.410066 
L 287.771151 -134.484384 
L 288.002621 -135.558701 
L 288.256255 -136.633019 
L 288.52684 -137.707337 
L 288.804697 -138.781654 
L 289.077646 -139.855972 
L 289.333423 -140.93029 
L 289.56186 -142.004607 
L 289.756317 -143.078925 
L 289.914182 -144.153243 
L 290.036493 -145.22756 
L 290.568507 -145.22756 
L 290.568507 -145.22756 
L 290.690818 -144.153243 
L 290.848683 -143.078925 
L 291.04314 -142.004607 
L 291.271577 -140.93029 
L 291.527354 -139.855972 
L 291.800303 -138.781654 
L 292.07816 -137.707337 
L 292.348745 -136.633019 
L 292.602379 -135.558701 
L 292.833849 -134.484384 
L 293.043244 -133.410066 
L 293.235262 -132.335749 
L 293.417076 -131.261431 
L 293.595318 -130.187113 
L 293.773155 -129.112796 
L 293.948515 -128.038478 
L 294.114288 -126.96416 
L 294.260841 -125.889843 
L 294.380549 -124.815525 
L 294.473476 -123.741207 
L 294.552959 -122.66689 
L 294.649715 -121.592572 
L 294.813273 -120.518254 
L 295.109867 -119.443937 
L 295.616534 -118.369619 
L 296.411824 -117.295302 
L 297.564265 -116.220984 
L 299.120432 -115.146666 
L 301.094892 -114.072349 
L 303.46432 -112.998031 
L 306.167478 -111.923713 
L 309.111522 -110.849396 
L 312.183506 -109.775078 
L 315.264421 -108.70076 
L 318.242251 -107.626443 
L 321.020802 -106.552125 
L 323.522527 -105.477807 
L 325.68584 -104.40349 
L 327.459596 -103.329172 
L 328.798617 -102.254855 
L 329.663751 -101.180537 
L 330.027961 -100.106219 
L 329.88715 -99.031902 
L 329.271917 -97.957584 
L 328.255389 -96.883266 
L 326.953174 -95.808949 
L 325.514045 -94.734631 
L 324.103319 -93.660313 
L 322.883502 -92.585996 
L 321.997866 -91.511678 
L 321.561435 -90.43736 
L 321.661138 -89.363043 
L 322.363454 -88.288725 
L 323.725213 -87.214408 
L 325.802256 -86.14009 
L 328.651747 -85.065772 
L 332.326697 -83.991455 
L 336.864522 -82.917137 
L 342.274045 -81.842819 
L 348.526299 -80.768502 
L 355.553361 -79.694184 
L 363.256735 -78.619866 
L 371.523448 -77.545549 
L 380.245178 -76.471231 
L 389.3344 -75.396913 
L 398.732134 -74.322596 
L 408.404233 -73.248278 
L 418.326382 -72.173961 
L 428.461226 -71.099643 
L 438.73327 -70.025325 
L 449.007863 -68.951008 
L 459.079651 -67.87669 
L 468.673628 -66.802372 
L 477.459099 -65.728055 
L 485.074002 -64.653737 
L 491.154987 -63.579419 
L 495.367733 -62.505102 
L 497.4325 -61.430784 
L 497.14178 -60.356466 
L 494.36953 -59.282149 
L 489.074073 -58.207831 
L 481.29834 -57.133514 
L 471.170919 -56.059196 
L 458.909467 -54.984878 
L 444.824904 -53.910561 
L 429.322009 -52.836243 
L 412.890788 -51.761925 
L 396.08421 -50.687608 
L 379.481478 -49.61329 
L 363.640633 -48.538972 
L 349.048323 -47.464655 
L 336.076423 -46.390337 
L 324.95408 -45.316019 
L 315.760167 -44.241702 
L 308.436238 -43.167384 
L 302.815573 -42.093067 
L 298.661047 -41.018749 
L 295.703976 -39.944431 
L 293.677478 -38.870114 
z
" id="m24024fb2cc" style="stroke:#4c4c4c;stroke-width:3;"/>
    </defs>
    <g clip-path="url(#pba071df824)">
     <use style="fill:#5875a4;stroke:#4c4c4c;stroke-width:3;" x="0" xlink:href="#m24024fb2cc" y="288"/>
    </g>
   </g>
   <g id="PolyCollection_2">
    <defs>
     <path d="M 809.317018 -44.055281 
L 806.937982 -44.055281 
L 805.090126 -46.018585 
L 801.08141 -47.981889 
L 793.268906 -49.945193 
L 779.635415 -51.908498 
L 758.432087 -53.871802 
L 729.242057 -55.835106 
L 694.039302 -57.79841 
L 657.517886 -59.761714 
L 626.140898 -61.725018 
L 606.078757 -63.688322 
L 600.9975 -65.651626 
L 610.849629 -67.61493 
L 632.2234 -69.578234 
L 659.909182 -71.541538 
L 688.793598 -73.504843 
L 715.234168 -75.468147 
L 737.502839 -77.431451 
L 755.398716 -79.394755 
L 769.47712 -81.358059 
L 780.391845 -83.321363 
L 788.619017 -85.284667 
L 794.510903 -87.247971 
L 798.446771 -89.211275 
L 800.892091 -91.174579 
L 802.338221 -93.137883 
L 803.205042 -95.101188 
L 803.784528 -97.064492 
L 804.241621 -99.027796 
L 804.647841 -100.9911 
L 805.022321 -102.954404 
L 805.368084 -104.917708 
L 805.695996 -106.881012 
L 806.028181 -108.844316 
L 806.380338 -110.80762 
L 806.737833 -112.770924 
L 807.047283 -114.734228 
L 807.233584 -116.697533 
L 807.233398 -118.660837 
L 807.027762 -120.624141 
L 806.660362 -122.587445 
L 806.234019 -124.550749 
L 805.882513 -126.514053 
L 805.72354 -128.477357 
L 805.811312 -130.440661 
L 806.11292 -132.403965 
L 806.522221 -134.367269 
L 806.904353 -136.330574 
L 807.14877 -138.293878 
L 807.20845 -140.257182 
L 807.112796 -142.220486 
L 806.951507 -144.18379 
L 806.834346 -146.147094 
L 806.841757 -148.110398 
L 806.990061 -150.073702 
L 807.230095 -152.037006 
L 807.477011 -154.00031 
L 807.649145 -155.963614 
L 807.694393 -157.926919 
L 807.599829 -159.890223 
L 807.393045 -161.853527 
L 807.139167 -163.816831 
L 806.926567 -165.780135 
L 806.836038 -167.743439 
L 806.904945 -169.706743 
L 807.110131 -171.670047 
L 807.383528 -173.633351 
L 807.64946 -175.596655 
L 807.857608 -177.559959 
L 807.993615 -179.523264 
L 808.069143 -181.486568 
L 808.105151 -183.449872 
L 808.119979 -185.413176 
L 808.125276 -187.37648 
L 808.126922 -189.339784 
L 808.127368 -191.303088 
L 808.127474 -193.266392 
L 808.127495 -195.229696 
L 808.127499 -197.193 
L 808.127498 -199.156304 
L 808.127489 -201.119609 
L 808.127442 -203.082913 
L 808.127228 -205.046217 
L 808.12638 -207.009521 
L 808.123447 -208.972825 
L 808.114617 -210.936129 
L 808.091518 -212.899433 
L 808.039197 -214.862737 
L 807.937092 -216.826041 
L 807.766746 -218.789345 
L 807.526947 -220.75265 
L 807.24907 -222.715954 
L 806.998541 -224.679258 
L 806.852635 -226.642562 
L 806.862572 -228.605866 
L 807.024736 -230.56917 
L 807.282777 -232.532474 
L 807.558959 -234.495778 
L 807.791279 -236.459082 
L 807.952796 -238.422386 
L 808.302204 -238.422386 
L 808.302204 -238.422386 
L 808.463721 -236.459082 
L 808.696041 -234.495778 
L 808.972223 -232.532474 
L 809.230264 -230.56917 
L 809.392428 -228.605866 
L 809.402365 -226.642562 
L 809.256459 -224.679258 
L 809.00593 -222.715954 
L 808.728053 -220.75265 
L 808.488254 -218.789345 
L 808.317908 -216.826041 
L 808.215803 -214.862737 
L 808.163482 -212.899433 
L 808.140383 -210.936129 
L 808.131553 -208.972825 
L 808.12862 -207.009521 
L 808.127772 -205.046217 
L 808.127558 -203.082913 
L 808.127511 -201.119609 
L 808.127502 -199.156304 
L 808.127501 -197.193 
L 808.127505 -195.229696 
L 808.127526 -193.266392 
L 808.127632 -191.303088 
L 808.128078 -189.339784 
L 808.129724 -187.37648 
L 808.135021 -185.413176 
L 808.149849 -183.449872 
L 808.185857 -181.486568 
L 808.261385 -179.523264 
L 808.397392 -177.559959 
L 808.60554 -175.596655 
L 808.871472 -173.633351 
L 809.144869 -171.670047 
L 809.350055 -169.706743 
L 809.418962 -167.743439 
L 809.328433 -165.780135 
L 809.115833 -163.816831 
L 808.861955 -161.853527 
L 808.655171 -159.890223 
L 808.560607 -157.926919 
L 808.605855 -155.963614 
L 808.777989 -154.00031 
L 809.024905 -152.037006 
L 809.264939 -150.073702 
L 809.413243 -148.110398 
L 809.420654 -146.147094 
L 809.303493 -144.18379 
L 809.142204 -142.220486 
L 809.04655 -140.257182 
L 809.10623 -138.293878 
L 809.350647 -136.330574 
L 809.732779 -134.367269 
L 810.14208 -132.403965 
L 810.443688 -130.440661 
L 810.53146 -128.477357 
L 810.372487 -126.514053 
L 810.020981 -124.550749 
L 809.594638 -122.587445 
L 809.227238 -120.624141 
L 809.021602 -118.660837 
L 809.021416 -116.697533 
L 809.207717 -114.734228 
L 809.517167 -112.770924 
L 809.874662 -110.80762 
L 810.226819 -108.844316 
L 810.559004 -106.881012 
L 810.886916 -104.917708 
L 811.232679 -102.954404 
L 811.607159 -100.9911 
L 812.013379 -99.027796 
L 812.470472 -97.064492 
L 813.049958 -95.101188 
L 813.916779 -93.137883 
L 815.362909 -91.174579 
L 817.808229 -89.211275 
L 821.744097 -87.247971 
L 827.635983 -85.284667 
L 835.863155 -83.321363 
L 846.77788 -81.358059 
L 860.856284 -79.394755 
L 878.752161 -77.431451 
L 901.020832 -75.468147 
L 927.461402 -73.504843 
L 956.345818 -71.541538 
L 984.0316 -69.578234 
L 1005.405371 -67.61493 
L 1015.2575 -65.651626 
L 1010.176243 -63.688322 
L 990.114102 -61.725018 
L 958.737114 -59.761714 
L 922.215698 -57.79841 
L 887.012943 -55.835106 
L 857.822913 -53.871802 
L 836.619585 -51.908498 
L 822.986094 -49.945193 
L 815.17359 -47.981889 
L 811.164874 -46.018585 
L 809.317018 -44.055281 
z
" id="me12aba6661" style="stroke:#4c4c4c;stroke-width:3;"/>
    </defs>
    <g clip-path="url(#pba071df824)">
     <use style="fill:#5f9e6e;stroke:#4c4c4c;stroke-width:3;" x="0" xlink:href="#me12aba6661" y="288"/>
    </g>
   </g>
   <g id="line2d_8">
    <path clip-path="url(#pba071df824)" d="M 290.3025 238.212956 
L 290.3025 188.120139 
" style="fill:none;stroke:#4c4c4c;stroke-linecap:round;stroke-width:3;"/>
   </g>
   <g id="line2d_9">
    <path clip-path="url(#pba071df824)" d="M 290.3025 229.288163 
L 290.3025 212.762129 
" style="fill:none;stroke:#4c4c4c;stroke-linecap:round;stroke-width:9;"/>
   </g>
   <g id="line2d_10">
    <path clip-path="url(#pba071df824)" d="M 808.1275 233.027789 
L 808.1275 206.911364 
" style="fill:none;stroke:#4c4c4c;stroke-linecap:round;stroke-width:3;"/>
   </g>
   <g id="line2d_11">
    <path clip-path="url(#pba071df824)" d="M 808.1275 225.248812 
L 808.1275 217.830809 
" style="fill:none;stroke:#4c4c4c;stroke-linecap:round;stroke-width:9;"/>
   </g>
   <g id="patch_3">
    <path d="M 31.39 259.1075 
L 31.39 39.6 
" style="fill:none;"/>
   </g>
   <g id="patch_4">
    <path d="M 1067.04 259.1075 
L 1067.04 39.6 
" style="fill:none;"/>
   </g>
   <g id="patch_5">
    <path d="M 31.39 259.1075 
L 1067.04 259.1075 
" style="fill:none;"/>
   </g>
   <g id="patch_6">
    <path d="M 31.39 39.6 
L 1067.04 39.6 
" style="fill:none;"/>
   </g>
   <g id="PathCollection_1">
    <defs>
     <path d="M 0 3 
C 0.795609 3 1.55874 2.683901 2.12132 2.12132 
C 2.683901 1.55874 3 0.795609 3 0 
C 3 -0.795609 2.683901 -1.55874 2.12132 -2.12132 
C 1.55874 -2.683901 0.795609 -3 0 -3 
C -0.795609 -3 -1.55874 -2.683901 -2.12132 -2.12132 
C -2.683901 -1.55874 -3 -0.795609 -3 0 
C -3 0.795609 -2.683901 1.55874 -2.12132 2.12132 
C -1.55874 2.683901 -0.795609 3 0 3 
z
" id="m756416146c" style="stroke:#4c4c4c;stroke-width:0.3;"/>
    </defs>
    <g clip-path="url(#pba071df824)">
     <use style="fill:#ffffff;stroke:#4c4c4c;stroke-width:0.3;" x="290.3025" xlink:href="#m756416146c" y="223.681444"/>
    </g>
   </g>
   <g id="PathCollection_2">
    <g clip-path="url(#pba071df824)">
     <use style="fill:#ffffff;stroke:#4c4c4c;stroke-width:0.3;" x="808.1275" xlink:href="#m756416146c" y="221.879727"/>
    </g>
   </g>
  </g>
  <g id="text_10">
   <!-- Violin Plot of all Continuous Variables -->
   <g style="fill:#262626;" transform="translate(416.035547 16.496719)scale(0.15 -0.15)">
    <defs>
     <path d="M 1803 0 
L 28 4581 
L 684 4581 
L 1875 1253 
Q 2019 853 2116 503 
Q 2222 878 2363 1253 
L 3600 4581 
L 4219 4581 
L 2425 0 
L 1803 0 
z
" id="ArialMT-56" transform="scale(0.015625)"/>
     <path d="M 213 1659 
Q 213 2581 725 3025 
Q 1153 3394 1769 3394 
Q 2453 3394 2887 2945 
Q 3322 2497 3322 1706 
Q 3322 1066 3130 698 
Q 2938 331 2570 128 
Q 2203 -75 1769 -75 
Q 1072 -75 642 372 
Q 213 819 213 1659 
z
M 791 1659 
Q 791 1022 1069 705 
Q 1347 388 1769 388 
Q 2188 388 2466 706 
Q 2744 1025 2744 1678 
Q 2744 2294 2464 2611 
Q 2184 2928 1769 2928 
Q 1347 2928 1069 2612 
Q 791 2297 791 1659 
z
" id="ArialMT-6f" transform="scale(0.015625)"/>
     <path d="M 494 0 
L 494 4581 
L 2222 4581 
Q 2678 4581 2919 4538 
Q 3256 4481 3484 4323 
Q 3713 4166 3852 3881 
Q 3991 3597 3991 3256 
Q 3991 2672 3619 2267 
Q 3247 1863 2275 1863 
L 1100 1863 
L 1100 0 
L 494 0 
z
M 1100 2403 
L 2284 2403 
Q 2872 2403 3119 2622 
Q 3366 2841 3366 3238 
Q 3366 3525 3220 3729 
Q 3075 3934 2838 4000 
Q 2684 4041 2272 4041 
L 1100 4041 
L 1100 2403 
z
" id="ArialMT-50" transform="scale(0.015625)"/>
     <path d="M 556 0 
L 556 2881 
L 59 2881 
L 59 3319 
L 556 3319 
L 556 3672 
Q 556 4006 616 4169 
Q 697 4388 901 4523 
Q 1106 4659 1475 4659 
Q 1713 4659 2000 4603 
L 1916 4113 
Q 1741 4144 1584 4144 
Q 1328 4144 1222 4034 
Q 1116 3925 1116 3625 
L 1116 3319 
L 1763 3319 
L 1763 2881 
L 1116 2881 
L 1116 0 
L 556 0 
z
" id="ArialMT-66" transform="scale(0.015625)"/>
     <path d="M 2597 0 
L 2597 488 
Q 2209 -75 1544 -75 
Q 1250 -75 995 37 
Q 741 150 617 320 
Q 494 491 444 738 
Q 409 903 409 1263 
L 409 3319 
L 972 3319 
L 972 1478 
Q 972 1038 1006 884 
Q 1059 663 1231 536 
Q 1403 409 1656 409 
Q 1909 409 2131 539 
Q 2353 669 2445 892 
Q 2538 1116 2538 1541 
L 2538 3319 
L 3100 3319 
L 3100 0 
L 2597 0 
z
" id="ArialMT-75" transform="scale(0.015625)"/>
     <path d="M 197 991 
L 753 1078 
Q 800 744 1014 566 
Q 1228 388 1613 388 
Q 2000 388 2187 545 
Q 2375 703 2375 916 
Q 2375 1106 2209 1216 
Q 2094 1291 1634 1406 
Q 1016 1563 777 1677 
Q 538 1791 414 1992 
Q 291 2194 291 2438 
Q 291 2659 392 2848 
Q 494 3038 669 3163 
Q 800 3259 1026 3326 
Q 1253 3394 1513 3394 
Q 1903 3394 2198 3281 
Q 2494 3169 2634 2976 
Q 2775 2784 2828 2463 
L 2278 2388 
Q 2241 2644 2061 2787 
Q 1881 2931 1553 2931 
Q 1166 2931 1000 2803 
Q 834 2675 834 2503 
Q 834 2394 903 2306 
Q 972 2216 1119 2156 
Q 1203 2125 1616 2013 
Q 2213 1853 2448 1751 
Q 2684 1650 2818 1456 
Q 2953 1263 2953 975 
Q 2953 694 2789 445 
Q 2625 197 2315 61 
Q 2006 -75 1616 -75 
Q 969 -75 630 194 
Q 291 463 197 991 
z
" id="ArialMT-73" transform="scale(0.015625)"/>
     <path d="M 416 0 
L 416 3319 
L 922 3319 
L 922 2816 
Q 1116 3169 1280 3281 
Q 1444 3394 1641 3394 
Q 1925 3394 2219 3213 
L 2025 2691 
Q 1819 2813 1613 2813 
Q 1428 2813 1281 2702 
Q 1134 2591 1072 2394 
Q 978 2094 978 1738 
L 978 0 
L 416 0 
z
" id="ArialMT-72" transform="scale(0.015625)"/>
     <path d="M 941 0 
L 419 0 
L 419 4581 
L 981 4581 
L 981 2947 
Q 1338 3394 1891 3394 
Q 2197 3394 2470 3270 
Q 2744 3147 2920 2923 
Q 3097 2700 3197 2384 
Q 3297 2069 3297 1709 
Q 3297 856 2875 390 
Q 2453 -75 1863 -75 
Q 1275 -75 941 416 
L 941 0 
z
M 934 1684 
Q 934 1088 1097 822 
Q 1363 388 1816 388 
Q 2184 388 2453 708 
Q 2722 1028 2722 1663 
Q 2722 2313 2464 2622 
Q 2206 2931 1841 2931 
Q 1472 2931 1203 2611 
Q 934 2291 934 1684 
z
" id="ArialMT-62" transform="scale(0.015625)"/>
    </defs>
    <use xlink:href="#ArialMT-56"/>
    <use x="64.949219" xlink:href="#ArialMT-69"/>
    <use x="87.166016" xlink:href="#ArialMT-6f"/>
    <use x="142.78125" xlink:href="#ArialMT-6c"/>
    <use x="164.998047" xlink:href="#ArialMT-69"/>
    <use x="187.214844" xlink:href="#ArialMT-6e"/>
    <use x="242.830078" xlink:href="#ArialMT-20"/>
    <use x="270.613281" xlink:href="#ArialMT-50"/>
    <use x="337.3125" xlink:href="#ArialMT-6c"/>
    <use x="359.529297" xlink:href="#ArialMT-6f"/>
    <use x="415.144531" xlink:href="#ArialMT-74"/>
    <use x="442.927734" xlink:href="#ArialMT-20"/>
    <use x="470.710938" xlink:href="#ArialMT-6f"/>
    <use x="526.326172" xlink:href="#ArialMT-66"/>
    <use x="554.109375" xlink:href="#ArialMT-20"/>
    <use x="581.892578" xlink:href="#ArialMT-61"/>
    <use x="637.507812" xlink:href="#ArialMT-6c"/>
    <use x="659.724609" xlink:href="#ArialMT-6c"/>
    <use x="681.941406" xlink:href="#ArialMT-20"/>
    <use x="709.724609" xlink:href="#ArialMT-43"/>
    <use x="781.941406" xlink:href="#ArialMT-6f"/>
    <use x="837.556641" xlink:href="#ArialMT-6e"/>
    <use x="893.171875" xlink:href="#ArialMT-74"/>
    <use x="920.955078" xlink:href="#ArialMT-69"/>
    <use x="943.171875" xlink:href="#ArialMT-6e"/>
    <use x="998.787109" xlink:href="#ArialMT-75"/>
    <use x="1054.402344" xlink:href="#ArialMT-6f"/>
    <use x="1110.017578" xlink:href="#ArialMT-75"/>
    <use x="1165.632812" xlink:href="#ArialMT-73"/>
    <use x="1215.632812" xlink:href="#ArialMT-20"/>
    <use x="1243.416016" xlink:href="#ArialMT-56"/>
    <use x="1302.740234" xlink:href="#ArialMT-61"/>
    <use x="1358.355469" xlink:href="#ArialMT-72"/>
    <use x="1391.65625" xlink:href="#ArialMT-69"/>
    <use x="1413.873047" xlink:href="#ArialMT-61"/>
    <use x="1469.488281" xlink:href="#ArialMT-62"/>
    <use x="1525.103516" xlink:href="#ArialMT-6c"/>
    <use x="1547.320312" xlink:href="#ArialMT-65"/>
    <use x="1602.935547" xlink:href="#ArialMT-73"/>
   </g>
  </g>
 </g>
 <defs>
  <clipPath id="pba071df824">
   <rect height="219.5075" width="1035.65" x="31.39" y="39.6"/>
  </clipPath>
 </defs>
</svg>
